<svg width="347" height="114" viewBox="0 0 347 114" fill="none" xmlns="http://www.w3.org/2000/svg">
<g clip-path="url(#clip0_246_144)">
<path d="M14.2584 99.0232H103.448C103.538 99.0232 103.625 99.0591 103.689 99.1229C103.752 99.1867 103.788 99.2733 103.788 99.3636L103.798 110.521C103.798 110.611 103.762 110.697 103.698 110.761C103.634 110.825 103.548 110.861 103.457 110.861H0.57697C0.486695 110.861 0.400118 110.825 0.336284 110.761C0.27245 110.697 0.236588 110.611 0.236588 110.521V36.5065C0.235788 36.4238 0.265089 36.3437 0.319023 36.2811C0.372958 36.2184 0.44784 36.1776 0.529695 36.1661L243.723 0.340948C243.771 0.334144 243.821 0.337885 243.868 0.351916C243.915 0.365948 243.958 0.389939 243.995 0.422252C244.032 0.454564 244.061 0.494438 244.081 0.539149C244.101 0.583861 244.111 0.632358 244.111 0.681329L244.082 87.5542C244.082 87.6445 244.046 87.7311 243.982 87.7949C243.919 87.8588 243.832 87.8946 243.742 87.8946L230.779 87.8757C230.689 87.8757 230.602 87.8399 230.538 87.776C230.474 87.7122 230.439 87.6256 230.439 87.5353L230.429 15.1759C230.43 15.1269 230.419 15.0784 230.399 15.0337C230.379 14.989 230.35 14.9491 230.313 14.9168C230.276 14.8845 230.233 14.8605 230.186 14.8465C230.139 14.8325 230.09 14.8287 230.041 14.8355L14.2111 45.8386C14.1309 45.8498 14.0573 45.8893 14.0036 45.95C13.9498 46.0107 13.9195 46.0885 13.918 46.1695V98.6828C13.918 98.7731 13.9539 98.8597 14.0177 98.9235C14.0816 98.9873 14.1681 99.0232 14.2584 99.0232Z" fill="#FF5E15"/>
<path d="M39.068 48.4192H27.7598C27.4151 48.4192 27.1357 48.6986 27.1357 49.0432V87.0147C27.1357 87.3593 27.4151 87.6387 27.7598 87.6387H39.068C39.4126 87.6387 39.692 87.3593 39.692 87.0147V49.0432C39.692 48.6986 39.4126 48.4192 39.068 48.4192Z" fill="white"/>
<path d="M59.1413 64.2085C59.8158 71.8103 59.9954 79.4279 59.6803 87.0613C59.6614 87.4458 59.4597 87.638 59.0752 87.638L48.6935 87.6286C48.619 87.6286 48.5453 87.6137 48.4764 87.5847C48.4076 87.5557 48.3451 87.5132 48.2924 87.4597C48.2397 87.4061 48.1979 87.3425 48.1694 87.2725C48.1409 87.2026 48.1262 87.1276 48.1262 87.0518V48.9669C48.1262 48.824 48.184 48.6869 48.2868 48.5858C48.3897 48.4848 48.5292 48.428 48.6746 48.428H65.4479C65.5943 48.4278 65.7369 48.4769 65.8533 48.5676C65.9696 48.6583 66.0532 48.7854 66.0908 48.9291L71.726 70.5622C71.7376 70.6227 71.7699 70.6773 71.8173 70.7165C71.8648 70.7557 71.9244 70.7772 71.986 70.7772C72.0476 70.7772 72.1072 70.7557 72.1547 70.7165C72.2021 70.6773 72.2344 70.6227 72.246 70.5622L77.8245 48.9291C77.8623 48.785 77.9468 48.6576 78.0649 48.5669C78.1831 48.4762 78.328 48.4273 78.4769 48.428H94.5977C94.9633 48.428 95.1461 48.6108 95.1461 48.9764V87.014C95.1461 87.43 94.9381 87.638 94.5221 87.638L83.4692 87.6759C82.9712 87.6759 82.7159 87.4269 82.7033 86.9289C82.4386 78.5076 82.6812 70.1084 83.4313 61.7312C83.4301 61.6962 83.4168 61.6626 83.3936 61.6363C83.3705 61.61 83.3389 61.5926 83.3042 61.587C83.2696 61.5814 83.2341 61.588 83.2039 61.6057C83.1736 61.6234 83.1504 61.6511 83.1382 61.6839L76.2361 87.1558C76.1988 87.2937 76.1166 87.4155 76.0022 87.5026C75.8878 87.5897 75.7474 87.6373 75.6026 87.638L66.6392 87.6286C66.5173 87.629 66.3986 87.5895 66.3012 87.5161C66.2039 87.4427 66.1333 87.3394 66.1003 87.222L59.7654 64.095C59.135 61.7943 58.927 61.8321 59.1413 64.2085Z" fill="white"/>
<path d="M115.606 75.5923V87.1842C115.606 87.4931 115.455 87.6475 115.152 87.6475L103.627 87.6286C103.464 87.6286 103.307 87.5639 103.192 87.4486C103.077 87.3333 103.012 87.177 103.012 87.014L103.022 48.9197C103.022 48.7934 103.071 48.6722 103.16 48.582C103.248 48.4918 103.368 48.4399 103.494 48.4375C110.233 48.4122 117.018 48.4154 123.851 48.4469C128.043 48.4658 131.365 49.6477 133.817 51.9926C140.161 58.0627 138.44 70.7703 129.959 74.0701C126.319 75.4789 120.684 74.8643 116.221 74.9683C115.811 74.9809 115.606 75.1889 115.606 75.5923ZM115.616 58.1383L115.597 65.3053C115.597 65.4382 115.65 65.5656 115.744 65.6596C115.838 65.7536 115.965 65.8064 116.098 65.8064L121.052 65.8158C121.543 65.8171 122.029 65.7222 122.482 65.5366C122.936 65.351 123.348 65.0784 123.696 64.7342C124.044 64.39 124.32 63.9811 124.509 63.5307C124.698 63.0804 124.795 62.5974 124.797 62.1095V61.372C124.798 60.884 124.702 60.4006 124.516 59.9493C124.329 59.498 124.055 59.0876 123.709 58.7417C123.363 58.3958 122.952 58.121 122.5 57.9331C122.047 57.7453 121.562 57.6479 121.071 57.6467L116.117 57.6372C115.984 57.6372 115.857 57.69 115.763 57.784C115.669 57.878 115.616 58.0054 115.616 58.1383Z" fill="white"/>
<path d="M157.02 72.7558V77.7008C157.02 77.8412 157.076 77.9759 157.175 78.0752C157.274 78.1745 157.409 78.2303 157.549 78.2303L178.209 78.2397C178.349 78.2397 178.484 78.2955 178.583 78.3948C178.682 78.4941 178.738 78.6288 178.738 78.7692L178.766 87.0991C178.766 87.2395 178.711 87.3742 178.611 87.4735C178.512 87.5728 178.377 87.6286 178.237 87.6286L144.955 87.638C144.815 87.638 144.68 87.5822 144.581 87.4829C144.482 87.3836 144.426 87.249 144.426 87.1085V48.9575C144.426 48.817 144.482 48.6824 144.581 48.5831C144.68 48.4838 144.815 48.428 144.955 48.428H177.859C177.999 48.428 178.134 48.4838 178.233 48.5831C178.333 48.6824 178.388 48.817 178.388 48.9575L178.379 57.3157C178.379 57.4561 178.323 57.5908 178.224 57.6901C178.124 57.7894 177.99 57.8452 177.849 57.8452L157.549 57.8547C157.409 57.8547 157.274 57.9104 157.175 58.0097C157.076 58.109 157.02 58.2437 157.02 58.3841L157.001 62.6767C157.001 62.8172 157.057 62.9518 157.156 63.0511C157.255 63.1504 157.39 63.2062 157.53 63.2062L174.805 63.2251C174.945 63.2251 175.08 63.2809 175.179 63.3802C175.279 63.4795 175.334 63.6142 175.334 63.7546L175.306 71.6968C175.306 71.8373 175.25 71.9719 175.151 72.0712C175.052 72.1705 174.917 72.2263 174.776 72.2263H157.549C157.409 72.2263 157.274 72.2821 157.175 72.3814C157.076 72.4807 157.02 72.6154 157.02 72.7558Z" fill="white"/>
<path d="M198.414 73.9572L198.462 87.0052C198.462 87.0871 198.445 87.1683 198.413 87.244C198.381 87.3197 198.335 87.3885 198.276 87.4464C198.217 87.5044 198.147 87.5504 198.07 87.5817C197.994 87.6131 197.911 87.6292 197.828 87.6292L186.501 87.6387C186.325 87.6387 186.157 87.5699 186.033 87.4476C185.909 87.3252 185.839 87.1593 185.839 86.9863L185.83 48.9486C185.83 48.6083 186.003 48.4381 186.35 48.4381C194.62 48.4129 202.858 48.4223 211.065 48.4664C223.782 48.5421 227.923 65.5611 215.982 71.0356C215.679 71.1743 215.607 71.3918 215.764 71.688L223.924 87.0241C223.959 87.0877 223.976 87.1592 223.974 87.2316C223.973 87.3039 223.952 87.3746 223.915 87.4367C223.878 87.4988 223.825 87.55 223.762 87.5855C223.699 87.6209 223.628 87.6392 223.555 87.6387L210.668 87.6292C210.498 87.6292 210.331 87.5815 210.185 87.4913C210.04 87.4012 209.922 87.2721 209.845 87.1186L203.378 73.8249C203.302 73.6665 203.182 73.5328 203.034 73.4392C202.885 73.3455 202.712 73.2957 202.537 73.2954L199.057 73.3048C198.622 73.3048 198.408 73.5223 198.414 73.9572ZM198.367 57.7513L198.348 64.2185C198.348 64.3213 198.389 64.4199 198.462 64.4926C198.534 64.5653 198.633 64.6062 198.736 64.6062L206.527 64.6346C207.015 64.6359 207.498 64.5457 207.95 64.3692C208.401 64.1927 208.811 63.9333 209.157 63.6058C209.503 63.2783 209.778 62.8891 209.966 62.4605C210.154 62.0319 210.251 61.5723 210.252 61.1078V60.9376C210.254 59.9999 209.865 59.0996 209.17 58.4347C208.475 57.7698 207.531 57.3947 206.546 57.392L198.755 57.3636C198.652 57.3636 198.553 57.4045 198.481 57.4772C198.408 57.5499 198.367 57.6485 198.367 57.7513Z" fill="white"/>
<path d="M291.982 72.0845C291.991 86.702 277.383 90.1153 265.706 87.5718C257.14 85.7124 252.857 80.3167 252.857 71.3848C252.863 63.9027 252.882 56.4175 252.913 48.9291C252.913 48.595 253.08 48.428 253.415 48.428L264.959 48.4374C265.274 48.4374 265.432 48.595 265.432 48.9102C265.47 55.4342 265.473 61.9392 265.441 68.4254C265.422 71.5077 265.618 73.6162 266.028 74.7508C268.448 81.549 279.359 79.7431 279.359 72.0845C279.353 64.3755 279.359 56.6602 279.378 48.9385C279.378 48.5982 279.548 48.428 279.889 48.428H291.424C291.733 48.428 291.887 48.5824 291.887 48.8913C291.944 56.6444 291.975 64.3755 291.982 72.0845Z" fill="white"/>
<path d="M310.588 62.2512C311.414 70.5465 311.638 78.8638 311.259 87.2031C311.247 87.4994 311.092 87.6475 310.796 87.6475L300.263 87.6191C299.967 87.6191 299.819 87.471 299.819 87.1747V48.9858C299.819 48.6139 300.005 48.428 300.377 48.428L317.188 48.4374C317.484 48.4374 317.67 48.5824 317.746 48.8724L323.371 70.4393C323.385 70.501 323.42 70.5557 323.469 70.5947C323.518 70.6337 323.579 70.6548 323.643 70.6548C323.707 70.6548 323.77 70.6337 323.821 70.5947C323.873 70.5557 323.911 70.501 323.929 70.4393L329.527 48.8535C329.602 48.5698 329.782 48.428 330.066 48.428L346.3 48.4374C346.634 48.4374 346.801 48.6045 346.801 48.9385V87.0518C346.801 87.4363 346.609 87.6286 346.224 87.6286H334.982C334.604 87.6286 334.405 87.4426 334.386 87.0707C334.046 79.1474 334.251 71.243 335.001 63.3575C335.222 61 335.023 60.9622 334.405 63.244L327.938 87.014C327.889 87.1934 327.782 87.3516 327.635 87.4643C327.488 87.577 327.309 87.6381 327.125 87.638L318.511 87.6286C318.083 87.6286 317.815 87.4237 317.708 87.014L310.938 62.1851C310.924 62.1438 310.896 62.109 310.859 62.0869C310.821 62.0649 310.777 62.0572 310.734 62.0653C310.691 62.0734 310.653 62.0967 310.626 62.1309C310.599 62.1651 310.586 62.2078 310.588 62.2512Z" fill="white"/>
<path d="M322.642 96.1098C322.536 96.6265 322.823 97.1219 323.283 97.2164C323.744 97.3109 324.203 96.9687 324.309 96.4521C324.415 95.9354 324.128 95.44 323.667 95.3455C323.207 95.251 322.748 95.5932 322.642 96.1098Z" fill="white"/>
<path d="M144.634 95.5244C144.701 95.3822 144.816 95.268 144.958 95.2017C145.101 95.1354 145.262 95.1213 145.414 95.1618C145.566 95.2023 145.699 95.2949 145.79 95.4234C145.88 95.5519 145.923 95.7081 145.91 95.8648L145.844 96.8387C145.838 96.9605 145.794 97.0775 145.719 97.1738C145.645 97.2702 145.542 97.3412 145.425 97.3773C145.309 97.4133 145.184 97.4128 145.068 97.3757C144.952 97.3385 144.85 97.2666 144.776 97.1696C144.391 96.6717 144.344 96.1233 144.634 95.5244Z" fill="white"/>
<path d="M188.125 96.4013C188.197 96.9292 188.624 97.3071 189.079 97.2456C189.534 97.184 189.846 96.7062 189.774 96.1784C189.703 95.6505 189.276 95.2726 188.82 95.3341C188.365 95.3957 188.054 95.8735 188.125 96.4013Z" fill="white"/>
<path d="M110.861 103.59L110.851 107.977C110.851 108.055 110.882 108.129 110.937 108.184C110.992 108.239 111.067 108.27 111.144 108.27L119.54 108.26C119.618 108.26 119.693 108.291 119.748 108.346C119.803 108.401 119.834 108.476 119.834 108.554V109.395C119.834 109.473 119.803 109.547 119.748 109.602C119.693 109.657 119.618 109.688 119.54 109.688H109.651C109.573 109.688 109.498 109.657 109.443 109.602C109.388 109.547 109.357 109.473 109.357 109.395V96.1675C109.357 96.0898 109.388 96.0152 109.443 95.9602C109.498 95.9053 109.573 95.8744 109.651 95.8744L119.446 95.8555C119.485 95.8554 119.524 95.8633 119.56 95.8787C119.597 95.894 119.629 95.9164 119.657 95.9446C119.684 95.9729 119.705 96.0063 119.72 96.043C119.734 96.0796 119.74 96.1188 119.739 96.158L119.711 97.0657C119.708 97.1418 119.676 97.2139 119.622 97.2669C119.567 97.3198 119.494 97.3494 119.418 97.3494L111.144 97.2643C111.067 97.2643 110.992 97.2952 110.937 97.3501C110.882 97.4051 110.851 97.4796 110.851 97.5574V101.604C110.851 101.682 110.882 101.756 110.937 101.811C110.992 101.866 111.067 101.897 111.144 101.897L118.586 101.916C118.625 101.916 118.664 101.924 118.7 101.939C118.736 101.955 118.769 101.977 118.796 102.005C118.824 102.034 118.845 102.067 118.859 102.104C118.873 102.14 118.88 102.179 118.879 102.219L118.869 103.022C118.867 103.098 118.835 103.171 118.78 103.224C118.725 103.277 118.652 103.306 118.576 103.306L111.154 103.297C111.076 103.297 111.002 103.327 110.947 103.382C110.892 103.437 110.861 103.512 110.861 103.59Z" fill="white"/>
<path d="M219.763 102.36C217.806 100.535 218.014 97.9637 220.369 96.6116C222.477 95.4014 228.264 95.7891 228.027 99.5332C228.017 99.6671 227.963 99.794 227.873 99.8938C227.784 99.9936 227.663 100.061 227.531 100.084C227.399 100.108 227.263 100.088 227.144 100.025C227.025 99.9632 226.93 99.8633 226.874 99.7413C225.771 97.3145 223.876 96.6116 221.191 97.6328C220.935 97.7306 220.701 97.8777 220.502 98.0657C220.303 98.2537 220.143 98.479 220.032 98.7285C219.92 98.978 219.859 99.2468 219.852 99.5196C219.845 99.7924 219.892 100.064 219.99 100.318C220.57 101.818 221.714 102.452 223.423 102.218C223.782 102.174 223.996 102.329 224.065 102.682L224.122 102.975C224.173 103.259 224.056 103.41 223.772 103.429C222.534 103.533 221.097 103.467 220.246 104.469C217.286 107.967 223.489 110.246 226.287 107.617C226.368 107.542 226.433 107.451 226.479 107.349C226.524 107.247 226.549 107.135 226.552 107.022L226.656 102.909C226.661 102.741 226.731 102.581 226.85 102.463C226.97 102.345 227.131 102.278 227.299 102.275L229.341 102.247C229.466 102.242 229.589 102.282 229.686 102.36C229.784 102.438 229.851 102.548 229.874 102.671C229.896 102.794 229.874 102.921 229.811 103.029C229.748 103.137 229.649 103.218 229.53 103.259L228.264 103.731C228.137 103.778 228.031 103.869 227.965 103.987C227.9 104.104 227.878 104.242 227.904 104.374C229.965 114.415 212.578 109.707 219.763 103.069C220.022 102.836 220.022 102.6 219.763 102.36Z" fill="white"/>
<path d="M239.327 98.4461C238.526 98.9251 238.066 99.8202 237.946 101.131C237.577 105.254 238.192 108.998 243.449 108.743C245.516 108.648 246.714 107.532 247.042 105.396C247.099 105.061 247.294 104.894 247.628 104.894H248.072C248.146 104.895 248.218 104.911 248.285 104.942C248.352 104.974 248.411 105.019 248.459 105.075C248.508 105.131 248.544 105.197 248.565 105.269C248.586 105.341 248.592 105.416 248.583 105.49C248.217 108.238 246.594 109.773 243.714 110.095C232.812 111.286 233.947 92.8865 245.104 96.3281C247.203 96.9837 248.344 98.3515 248.526 100.432C248.544 100.592 248.503 100.752 248.41 100.883C248.318 101.013 248.18 101.106 248.023 101.143C247.866 101.18 247.701 101.159 247.557 101.083C247.413 101.008 247.3 100.884 247.24 100.734C245.728 96.9711 243.09 96.2084 239.327 98.4461Z" fill="white"/>
<path d="M285.429 100.942L285.438 107.693C285.438 107.868 285.503 108.038 285.622 108.169C285.741 108.3 285.904 108.383 286.081 108.402L287.235 108.525C287.307 108.532 287.375 108.559 287.433 108.602C287.49 108.646 287.535 108.704 287.563 108.771C287.591 108.839 287.601 108.913 287.591 108.986C287.582 109.059 287.553 109.128 287.509 109.187C286.564 110.406 284.001 109.669 283.954 107.787C283.904 105.543 283.866 103.296 283.841 101.046C283.841 100.693 283.664 100.485 283.311 100.422L282.696 100.308C282.306 100.239 282.192 100.022 282.356 99.656C282.539 99.2715 282.87 99.1329 283.349 99.24C283.412 99.2537 283.477 99.2537 283.541 99.2401C283.604 99.2265 283.663 99.1995 283.715 99.161C283.767 99.1225 283.81 99.0734 283.842 99.0169C283.873 98.9604 283.892 98.8979 283.897 98.8334L284.049 96.8479C284.08 96.4697 284.282 96.2963 284.654 96.3279L284.956 96.3562C285.372 96.394 285.561 96.621 285.524 97.037L285.344 98.7578C285.337 98.833 285.349 98.9088 285.378 98.9782C285.408 99.0477 285.454 99.1086 285.514 99.1556C285.573 99.2025 285.643 99.234 285.717 99.2471C285.791 99.2602 285.868 99.2545 285.94 99.2306C286.696 98.9784 287.266 99.1329 287.651 99.6939C287.702 99.7697 287.731 99.8584 287.735 99.9499C287.738 100.041 287.716 100.132 287.671 100.212C287.626 100.291 287.559 100.357 287.479 100.4C287.398 100.444 287.307 100.465 287.216 100.46L286.006 100.403C285.621 100.384 285.429 100.564 285.429 100.942Z" fill="white"/>
<path d="M318.73 100.847L318.72 107.702C318.72 108.131 318.938 108.367 319.373 108.411L320.564 108.534C320.64 108.54 320.711 108.569 320.771 108.616C320.83 108.663 320.873 108.727 320.896 108.799C320.918 108.872 320.918 108.949 320.896 109.021C320.874 109.094 320.831 109.158 320.772 109.206C320.085 109.786 319.278 109.883 318.352 109.499C317.545 109.171 317.141 108.572 317.141 107.702V101.226C317.141 100.967 317.031 100.778 316.81 100.658L315.761 100.091C315.67 100.046 315.597 99.97 315.556 99.8768C315.515 99.7836 315.508 99.6789 315.536 99.581C315.564 99.4831 315.625 99.3981 315.71 99.341C315.794 99.2839 315.896 99.2582 315.997 99.2684C317.182 99.344 317.579 98.6727 317.189 97.2544C317.164 97.1595 317.159 97.0604 317.176 96.9637C317.193 96.867 317.23 96.7751 317.286 96.6942C317.342 96.6134 317.414 96.5456 317.499 96.4954C317.583 96.4452 317.677 96.4138 317.775 96.4035L318.153 96.3657C318.556 96.3215 318.752 96.5012 318.739 96.9046L318.673 98.512C318.669 98.5964 318.682 98.6808 318.711 98.7602C318.74 98.8397 318.784 98.9127 318.841 98.9751C318.898 99.0374 318.967 99.0879 319.044 99.1236C319.12 99.1594 319.203 99.1796 319.288 99.1833L320.347 99.2211C320.419 99.2247 320.491 99.2428 320.557 99.2743C320.623 99.3059 320.681 99.3503 320.73 99.4049C320.778 99.4595 320.815 99.5232 320.839 99.5923C320.862 99.6614 320.872 99.7345 320.867 99.8073L320.857 100.072C320.85 100.176 320.803 100.272 320.727 100.341C320.651 100.41 320.552 100.446 320.451 100.441L319.193 100.394C318.884 100.381 318.73 100.532 318.73 100.847Z" fill="white"/>
<path d="M140.304 113.461H134.29C132.236 111.854 132.024 110.312 133.657 108.837C133.884 108.636 133.909 108.412 133.733 108.166L133.099 107.268C133.005 107.135 132.96 106.974 132.972 106.812C132.984 106.649 133.053 106.497 133.165 106.379L134.366 105.131C134.44 105.056 134.483 104.955 134.486 104.849C134.49 104.742 134.454 104.637 134.385 104.554C131.151 100.763 136.125 98.522 139.51 99.5432C139.793 99.6251 140.033 99.5558 140.228 99.3352L141.684 97.6427C141.763 97.5527 141.871 97.4922 141.989 97.4711C142.107 97.4501 142.229 97.4697 142.334 97.5268C142.439 97.5839 142.522 97.6751 142.569 97.7855C142.616 97.8959 142.624 98.0189 142.592 98.1344C142.359 98.9349 141.88 99.5558 141.155 99.997C141.052 100.062 140.976 100.162 140.943 100.279C140.91 100.396 140.921 100.521 140.975 100.63C143.424 105.311 138.422 105.888 135.349 105.878C135.269 105.878 135.19 105.894 135.116 105.925C135.042 105.956 134.974 106.001 134.918 106.059C134.862 106.116 134.817 106.184 134.788 106.258C134.758 106.333 134.743 106.412 134.744 106.493L134.763 107.05C134.766 107.23 134.838 107.402 134.965 107.529C135.092 107.656 135.264 107.729 135.444 107.731L140.692 107.797C140.87 107.8 141.046 107.845 141.205 107.927C141.364 108.009 141.502 108.126 141.609 108.27C143.153 110.426 142.718 112.156 140.304 113.461ZM140.133 102.452C140.12 101.881 139.83 101.339 139.326 100.946C138.822 100.553 138.146 100.341 137.447 100.357C137.1 100.365 136.759 100.428 136.441 100.544C136.124 100.659 135.837 100.825 135.596 101.03C135.356 101.236 135.167 101.478 135.04 101.743C134.914 102.007 134.852 102.289 134.858 102.572C134.871 103.143 135.162 103.685 135.665 104.078C136.169 104.471 136.845 104.683 137.545 104.667C137.891 104.659 138.233 104.596 138.55 104.48C138.868 104.365 139.155 104.199 139.395 103.994C139.635 103.788 139.824 103.546 139.951 103.282C140.078 103.017 140.139 102.735 140.133 102.452ZM141.022 110.568C141.022 110.162 140.861 109.772 140.574 109.485C140.287 109.197 139.897 109.036 139.491 109.036H135.614C135.208 109.036 134.818 109.197 134.531 109.485C134.244 109.772 134.082 110.162 134.082 110.568V110.757C134.082 111.163 134.244 111.553 134.531 111.84C134.818 112.127 135.208 112.289 135.614 112.289H139.491C139.897 112.289 140.287 112.127 140.574 111.84C140.861 111.553 141.022 111.163 141.022 110.757V110.568Z" fill="white"/>
<path d="M210.252 113.461H204.229C202.105 111.948 201.878 110.385 203.548 108.771C203.775 108.557 203.788 108.333 203.586 108.1C202.678 107.016 202.87 106.083 204.163 105.301C204.484 105.099 204.519 104.86 204.267 104.583C201.033 100.961 205.921 98.3895 209.325 99.5808C209.672 99.7006 209.955 99.6155 210.176 99.3255L211.084 98.1247C211.304 97.8348 211.594 97.7087 211.954 97.7465L212.209 97.7655C212.29 97.7743 212.367 97.8053 212.432 97.8551C212.497 97.9049 212.546 97.9715 212.576 98.0477C212.605 98.1239 212.613 98.2067 212.598 98.287C212.583 98.3673 212.547 98.442 212.492 98.5029L211.084 100.072C210.869 100.306 210.832 100.564 210.97 100.848C213.088 105.358 208.238 105.887 205.278 105.868C205.115 105.868 204.958 105.931 204.84 106.044C204.722 106.157 204.652 106.31 204.645 106.474L204.616 106.965C204.591 107.419 204.809 107.662 205.269 107.693C207.614 107.835 212.511 106.814 212.398 110.624C212.366 111.809 211.651 112.755 210.252 113.461ZM210.005 102.434C209.988 101.86 209.693 101.317 209.187 100.926C208.68 100.535 208.003 100.327 207.304 100.348C206.957 100.358 206.616 100.424 206.299 100.542C205.983 100.661 205.697 100.829 205.458 101.037C205.219 101.245 205.032 101.489 204.907 101.756C204.782 102.022 204.723 102.306 204.731 102.59C204.748 103.164 205.042 103.706 205.549 104.098C206.055 104.489 206.733 104.697 207.432 104.676C207.778 104.666 208.12 104.6 208.436 104.481C208.753 104.363 209.039 104.195 209.278 103.987C209.517 103.779 209.704 103.534 209.829 103.268C209.953 103.001 210.013 102.718 210.005 102.434ZM210.885 110.565C210.884 110.364 210.844 110.165 210.766 109.979C210.689 109.794 210.575 109.625 210.432 109.483C210.29 109.342 210.12 109.229 209.934 109.153C209.748 109.077 209.549 109.038 209.348 109.039L205.509 109.052C205.103 109.053 204.714 109.216 204.428 109.504C204.141 109.793 203.981 110.183 203.983 110.589L203.983 110.759C203.984 110.96 204.024 111.159 204.102 111.345C204.179 111.531 204.293 111.699 204.436 111.841C204.578 111.983 204.748 112.095 204.934 112.171C205.12 112.247 205.319 112.286 205.52 112.286L209.359 112.272C209.765 112.271 210.154 112.108 210.441 111.82C210.727 111.532 210.887 111.141 210.885 110.735L210.885 110.565Z" fill="white"/>
<path d="M189.016 99.1746H188.865C188.483 99.1746 188.174 99.4836 188.174 99.8648V109.036C188.174 109.417 188.483 109.726 188.865 109.726H189.016C189.397 109.726 189.706 109.417 189.706 109.036V99.8648C189.706 99.4836 189.397 99.1746 189.016 99.1746Z" fill="white"/>
<path d="M323.562 99.1829H323.391C323.01 99.1829 322.701 99.4919 322.701 99.8731V109.026C322.701 109.407 323.01 109.716 323.391 109.716H323.562C323.943 109.716 324.252 109.407 324.252 109.026V99.8731C324.252 99.4919 323.943 99.1829 323.562 99.1829Z" fill="white"/>
<path d="M123.993 100.526L125.109 99.8072C125.374 99.637 125.654 99.5046 125.951 99.4101C132.286 97.5002 130.707 106.152 130.688 109.253C130.681 109.574 130.517 109.729 130.196 109.716L129.799 109.697C129.49 109.685 129.332 109.524 129.326 109.215C129.279 107.475 129.704 102.786 128.901 101.443C127.879 99.7505 125.062 100.497 124.126 101.953C123.228 103.343 123.681 107.324 123.653 109.045C123.647 109.373 123.489 109.587 123.18 109.688C122.821 109.795 122.537 109.741 122.329 109.527C122.191 109.382 122.121 109.149 122.121 108.827C122.14 105.776 122.15 102.801 122.15 99.9018C122.151 99.7674 122.201 99.638 122.289 99.5366C122.377 99.4352 122.498 99.3683 122.631 99.3479C122.763 99.3274 122.899 99.3548 123.014 99.4251C123.128 99.4953 123.214 99.6039 123.256 99.7316L123.426 100.318C123.527 100.633 123.716 100.702 123.993 100.526Z" fill="white"/>
<path d="M145.485 99.2214H144.899C144.674 99.2214 144.492 99.4035 144.492 99.628V109.291C144.492 109.516 144.674 109.698 144.899 109.698H145.485C145.709 109.698 145.891 109.516 145.891 109.291V99.628C145.891 99.4035 145.709 99.2214 145.485 99.2214Z" fill="white"/>
<path d="M150.865 100.374C152.831 98.7419 154.851 98.7608 156.925 100.431C157.043 100.525 157.139 100.646 157.204 100.783C157.27 100.921 157.304 101.072 157.303 101.225L157.37 109.13C157.376 109.54 157.174 109.732 156.765 109.707C156.651 109.7 156.534 109.697 156.415 109.697C156.068 109.697 155.888 109.521 155.876 109.168C155.828 106.728 157.247 99.0697 152.444 100.668C149.333 101.698 150.307 106.454 150.307 109.026C150.306 109.163 150.265 109.297 150.187 109.41C150.11 109.523 150 109.61 149.872 109.659C149.494 109.798 149.191 109.76 148.964 109.546C148.807 109.395 148.728 109.149 148.728 108.808C148.721 105.751 148.725 102.757 148.737 99.8261C148.739 99.7102 148.778 99.5978 148.848 99.5057C148.918 99.4136 149.017 99.3467 149.128 99.3148C149.24 99.283 149.358 99.2879 149.467 99.3289C149.575 99.3699 149.667 99.4448 149.73 99.5424L150.174 100.261C150.363 100.564 150.594 100.601 150.865 100.374Z" fill="white"/>
<path d="M160.887 105.546C160.471 109.423 165.529 110.217 166.834 106.69C166.888 106.544 166.991 106.421 167.124 106.341C167.257 106.26 167.414 106.227 167.568 106.247C167.722 106.266 167.866 106.338 167.974 106.449C168.083 106.561 168.151 106.705 168.167 106.86C168.451 109.839 163.704 110.519 162.125 109.839C157.502 107.834 158.249 98.8991 164.073 99.2111C166.141 99.3246 167.594 100.664 168.432 103.229C168.5 103.442 168.518 103.669 168.482 103.889C168.447 104.11 168.36 104.32 168.228 104.5C168.096 104.681 167.923 104.828 167.724 104.929C167.524 105.03 167.304 105.083 167.08 105.083L161.388 105.092C161.085 105.092 160.918 105.243 160.887 105.546ZM161.17 103.901L166.408 103.92C166.461 103.921 166.514 103.912 166.563 103.892C166.613 103.873 166.658 103.844 166.695 103.807C166.733 103.77 166.763 103.726 166.784 103.677C166.804 103.628 166.815 103.576 166.815 103.523V103.419C166.816 103.032 166.741 102.65 166.595 102.293C166.448 101.935 166.233 101.61 165.96 101.337C165.688 101.063 165.365 100.845 165.009 100.696C164.652 100.547 164.27 100.47 163.884 100.469H163.733C163.347 100.467 162.964 100.542 162.607 100.689C162.249 100.835 161.925 101.051 161.651 101.323C161.377 101.595 161.159 101.919 161.01 102.275C160.861 102.631 160.784 103.014 160.783 103.4V103.504C160.783 103.607 160.823 103.707 160.896 103.781C160.968 103.855 161.067 103.898 161.17 103.901Z" fill="white"/>
<path d="M171.685 105.64C171.675 109.848 176.545 109.876 178.095 106.444C178.129 106.37 178.181 106.306 178.246 106.257C178.312 106.209 178.388 106.178 178.468 106.168C178.547 106.157 178.628 106.167 178.702 106.198C178.776 106.228 178.841 106.277 178.89 106.34C179.179 106.712 179.164 107.182 178.842 107.749C178.08 109.073 177.08 109.816 175.845 109.98C167.647 111.058 168.602 98.1142 175.552 99.2771C177.493 99.5986 178.77 101.02 179.381 103.541C179.426 103.723 179.428 103.913 179.388 104.096C179.349 104.279 179.268 104.451 179.153 104.599C179.037 104.746 178.889 104.865 178.721 104.948C178.553 105.03 178.368 105.073 178.18 105.073L172.243 105.083C171.871 105.083 171.685 105.268 171.685 105.64ZM172.167 103.967H177.273C177.333 103.967 177.393 103.955 177.449 103.931C177.504 103.908 177.555 103.874 177.597 103.831C177.639 103.787 177.673 103.736 177.695 103.68C177.717 103.624 177.728 103.564 177.727 103.504V103.362C177.724 102.594 177.422 101.858 176.887 101.315C176.352 100.773 175.627 100.469 174.871 100.468H174.569C174.193 100.468 173.821 100.544 173.474 100.69C173.127 100.837 172.811 101.051 172.546 101.322C172.281 101.592 172.071 101.914 171.928 102.267C171.785 102.62 171.712 102.999 171.713 103.381V103.522C171.716 103.641 171.765 103.754 171.849 103.837C171.934 103.92 172.048 103.967 172.167 103.967Z" fill="white"/>
<path d="M183.693 100.062C184.273 99.3438 185.042 99.0759 186 99.2587C186.169 99.2967 186.318 99.3943 186.421 99.5336C186.523 99.673 186.572 99.8446 186.558 100.017C186.545 100.19 186.469 100.351 186.346 100.472C186.222 100.594 186.059 100.666 185.886 100.677C181.925 100.79 183.078 106.511 183.059 109.177C183.058 109.252 183.042 109.327 183.011 109.395C182.981 109.464 182.936 109.526 182.881 109.576C182.826 109.627 182.762 109.665 182.692 109.689C182.621 109.713 182.547 109.722 182.473 109.716L181.991 109.678C181.688 109.653 181.537 109.489 181.537 109.187L181.547 99.6937C181.547 99.2146 181.729 99.1264 182.095 99.4289L182.984 100.148C183.248 100.356 183.485 100.327 183.693 100.062Z" fill="white"/>
<path d="M193.999 100.459C202.112 95.7791 200.655 105.092 200.599 109.177C200.592 109.536 200.41 109.713 200.05 109.706C199.905 109.7 199.76 109.697 199.615 109.697C199.281 109.684 199.114 109.511 199.114 109.177L199.133 102.369C199.133 102.045 199.04 101.727 198.866 101.454C198.692 101.181 198.443 100.964 198.15 100.828C196.788 100.198 195.613 100.33 194.623 101.225C192.931 102.747 193.536 107.04 193.574 109.186C193.574 109.527 193.403 109.7 193.063 109.706H192.675C192.203 109.713 191.966 109.476 191.966 108.997L191.995 99.8826C191.995 99.777 192.029 99.6746 192.092 99.5902C192.155 99.5057 192.243 99.4433 192.345 99.4119C192.446 99.3805 192.556 99.3817 192.657 99.4153C192.759 99.4488 192.848 99.5131 192.912 99.599L193.432 100.336C193.493 100.425 193.586 100.487 193.691 100.51C193.797 100.532 193.907 100.515 193.999 100.459Z" fill="white"/>
<path d="M255.307 110.293C254.664 110.298 254.026 110.157 253.43 109.879C252.834 109.602 252.291 109.193 251.832 108.675C251.374 108.158 251.009 107.542 250.758 106.864C250.507 106.185 250.375 105.457 250.37 104.721C250.365 103.984 250.487 103.254 250.728 102.572C250.969 101.89 251.326 101.27 251.777 100.746C252.228 100.222 252.765 99.8055 253.357 99.5196C253.95 99.2337 254.586 99.0842 255.229 99.0797C255.872 99.0752 256.51 99.2158 257.106 99.4934C257.702 99.771 258.245 100.18 258.703 100.698C259.162 101.215 259.527 101.831 259.778 102.509C260.029 103.188 260.16 103.916 260.166 104.652C260.171 105.389 260.049 106.118 259.808 106.8C259.566 107.482 259.21 108.103 258.759 108.627C258.308 109.151 257.771 109.567 257.178 109.853C256.586 110.139 255.95 110.289 255.307 110.293ZM255.279 109.017C255.721 109.014 256.158 108.898 256.565 108.677C256.972 108.456 257.341 108.134 257.65 107.729C257.96 107.324 258.205 106.844 258.37 106.316C258.536 105.788 258.619 105.223 258.615 104.653C258.607 103.502 258.245 102.401 257.608 101.592C256.971 100.782 256.111 100.331 255.219 100.337C254.777 100.34 254.34 100.456 253.933 100.677C253.526 100.897 253.157 101.22 252.847 101.625C252.538 102.03 252.293 102.51 252.128 103.038C251.962 103.566 251.879 104.131 251.883 104.701C251.891 105.851 252.253 106.953 252.89 107.762C253.527 108.572 254.387 109.023 255.279 109.017Z" fill="white"/>
<path d="M264.334 100.402C267.492 98.3127 270.849 98.6626 270.943 103.106C270.981 105.136 270.978 107.147 270.934 109.139C270.927 109.511 270.738 109.693 270.366 109.687H270.045C269.648 109.675 269.449 109.47 269.449 109.073L269.44 102.341C269.441 102.068 269.383 101.799 269.272 101.55C269.16 101.301 268.997 101.079 268.793 100.899C268.589 100.718 268.349 100.583 268.089 100.502C267.829 100.421 267.554 100.397 267.284 100.431C262.604 101.017 263.833 105.886 263.824 109.243C263.817 109.514 263.682 109.662 263.417 109.687C263.272 109.706 263.127 109.719 262.982 109.725C262.905 109.732 262.827 109.722 262.754 109.697C262.681 109.672 262.614 109.632 262.557 109.579C262.5 109.527 262.454 109.463 262.423 109.392C262.393 109.321 262.377 109.245 262.377 109.167V99.7026C262.379 99.6035 262.412 99.5076 262.472 99.4288C262.532 99.3501 262.616 99.2928 262.712 99.2653C262.807 99.2378 262.908 99.2415 263.001 99.276C263.094 99.3105 263.174 99.3738 263.228 99.4568L263.729 100.27C263.887 100.516 264.088 100.56 264.334 100.402Z" fill="white"/>
<path d="M278.99 108.515C279.307 108.383 279.572 108.149 279.743 107.851C279.914 107.552 279.982 107.206 279.935 106.865C279.889 106.524 279.731 106.208 279.487 105.966C279.242 105.724 278.925 105.57 278.584 105.527C276.548 105.275 274.783 104.462 273.289 103.088C273.167 102.977 273.079 102.836 273.034 102.679C272.988 102.522 272.988 102.355 273.033 102.199C274.206 98.1145 281.023 98.1996 281.042 102.01C281.038 102.162 280.979 102.308 280.877 102.422C280.775 102.535 280.636 102.609 280.485 102.629C280.334 102.65 280.181 102.616 280.052 102.534C279.924 102.451 279.829 102.326 279.784 102.18C279.198 100.053 275.908 99.8353 274.82 101.462C274.727 101.601 274.666 101.759 274.644 101.925C274.622 102.092 274.639 102.26 274.693 102.418C274.747 102.576 274.837 102.719 274.956 102.835C275.075 102.951 275.22 103.038 275.378 103.088C277.383 103.75 282.961 104.714 281.117 108.184C279.557 111.115 275.435 110.425 273.137 108.666C272.917 108.489 272.735 108.226 272.627 107.927C272.519 107.629 272.492 107.316 272.552 107.049C272.612 106.783 272.754 106.581 272.952 106.483C273.149 106.386 273.387 106.399 273.62 106.52C274.143 106.816 274.395 107.172 274.376 107.588C274.37 107.717 274.399 107.845 274.459 107.958C274.519 108.071 274.608 108.165 274.716 108.231C276.072 109.038 277.496 109.133 278.99 108.515Z" fill="white"/>
<path d="M291.622 100.119C292.246 99.3187 292.955 99.0445 293.749 99.2966C293.922 99.3453 294.07 99.4558 294.166 99.607C294.262 99.7582 294.299 99.9395 294.27 100.116C294.241 100.293 294.147 100.453 294.008 100.565C293.868 100.677 293.692 100.734 293.513 100.724C290.005 100.639 290.932 106.993 290.97 109.187C290.976 109.565 290.79 109.741 290.412 109.716L289.939 109.678C289.592 109.653 289.419 109.464 289.419 109.111L289.476 99.8829C289.476 99.2966 289.703 99.1895 290.156 99.5614L290.932 100.204C291.184 100.412 291.414 100.384 291.622 100.119Z" fill="white"/>
<path d="M313.718 102.956C312.848 97.6803 305.606 101.16 308.045 106.908C309.019 109.225 311.591 109.632 313.274 107.826C313.517 107.564 313.655 107.217 313.661 106.852C313.674 106.24 313.986 105.925 314.597 105.906C314.875 105.906 315.026 106.045 315.051 106.322C315.467 111.74 304.783 112.099 306.324 103.316C307.345 97.5101 315.392 98.172 315.08 102.89C315.062 103.053 314.986 103.205 314.866 103.317C314.747 103.43 314.591 103.496 314.427 103.504C314.263 103.512 314.102 103.461 313.972 103.361C313.842 103.26 313.752 103.117 313.718 102.956Z" fill="white"/>
<path d="M336.013 105.802C336.013 106.943 335.56 108.037 334.753 108.844C333.946 109.651 332.852 110.104 331.711 110.104H330.917C329.776 110.104 328.682 109.651 327.875 108.844C327.068 108.037 326.615 106.943 326.615 105.802V103.571C326.615 102.43 327.068 101.335 327.875 100.529C328.682 99.7218 329.776 99.2686 330.917 99.2686H331.711C332.852 99.2686 333.946 99.7218 334.753 100.529C335.56 101.335 336.013 102.43 336.013 103.571V105.802ZM334.489 103.414C334.487 102.636 334.177 101.891 333.626 101.343C333.076 100.794 332.33 100.487 331.552 100.488L331.061 100.489C330.676 100.489 330.295 100.566 329.94 100.714C329.584 100.862 329.261 101.078 328.99 101.351C328.718 101.623 328.503 101.947 328.356 102.303C328.209 102.659 328.134 103.04 328.135 103.425L328.139 105.94C328.141 106.717 328.451 107.462 329.001 108.011C329.552 108.56 330.298 108.867 331.075 108.866L331.567 108.865C331.952 108.864 332.333 108.788 332.688 108.64C333.044 108.492 333.366 108.276 333.638 108.003C333.91 107.73 334.125 107.407 334.272 107.051C334.418 106.695 334.494 106.314 334.493 105.929L334.489 103.414Z" fill="white"/>
<path d="M346.999 101.358V109.707H346.044C345.717 109.707 345.553 109.546 345.553 109.224V102.37C345.553 102.026 345.451 101.69 345.259 101.406C345.066 101.121 344.794 100.9 344.475 100.772C338.906 98.5591 339.908 106.681 339.87 109.243C339.864 109.559 339.703 109.713 339.388 109.707L338.944 109.697C338.61 109.691 338.443 109.521 338.443 109.187L338.433 99.968C338.433 99.8854 338.451 99.8037 338.488 99.7297C338.524 99.6558 338.578 99.5916 338.643 99.5427C338.709 99.4937 338.785 99.4612 338.865 99.4481C338.945 99.4349 339.027 99.4413 339.104 99.4668C339.457 99.5803 339.64 99.8513 339.653 100.28C339.665 100.715 339.848 100.803 340.201 100.545C343.094 98.4268 345.361 98.6978 346.999 101.358Z" fill="white"/>
<path d="M301.72 108.97C299.678 110.64 297.642 110.602 295.612 108.856C295.487 108.746 295.386 108.612 295.316 108.462C295.246 108.312 295.208 108.15 295.205 107.986L295.12 100.299C295.117 100.17 295.162 100.043 295.248 99.9435C295.333 99.8441 295.453 99.779 295.584 99.7605L296.141 99.6848C296.532 99.6281 296.728 99.7951 296.728 100.186L296.68 107.249C296.68 107.555 296.78 107.852 296.964 108.098C297.148 108.343 297.407 108.523 297.701 108.61C303.516 110.303 302.202 103.202 302.344 100.11C302.351 99.9673 302.413 99.8326 302.517 99.7341C302.621 99.6355 302.759 99.5806 302.902 99.5808H303.185C303.551 99.5808 303.734 99.7668 303.734 100.139L303.743 109.745C303.743 109.821 303.72 109.895 303.677 109.957C303.633 110.019 303.572 110.067 303.5 110.092C303.429 110.118 303.351 110.121 303.278 110.102C303.205 110.082 303.139 110.04 303.091 109.981L302.325 109.036C302.142 108.815 301.941 108.793 301.72 108.97Z" fill="white"/>
</g>
<defs>
<clipPath id="clip0_246_144">
<rect width="347" height="113.46" fill="white"/>
</clipPath>
</defs>
</svg>
