<svg width="46" height="60" viewBox="0 0 46 60" fill="none" xmlns="http://www.w3.org/2000/svg">
<path d="M23.07 5.65004H23.12C23.73 5.65004 24.23 6.15004 24.23 6.76004C24.23 7.37004 23.73 7.87004 23.12 7.87004C22.51 7.87004 22.01 7.37004 22.01 6.76004V6.75004C21.99 6.15004 22.47 5.66004 23.07 5.65004ZM23.12 9.35004C24.55 9.35004 25.72 8.19004 25.72 6.76004C25.72 5.33004 24.56 4.17004 23.12 4.17004H23.05C21.64 4.19004 20.51 5.35004 20.53 6.76004C20.52 8.19004 21.68 9.35004 23.12 9.35004Z" fill="#0744A3"/>
<path d="M42.3901 58.2799H3.84012C3.02012 58.2799 2.36012 57.6199 2.36012 56.7999V8.59994C2.36012 7.77994 3.02012 7.11994 3.84012 7.11994H12.0001V14.5499H34.2401V7.11994H42.4001C43.2201 7.11994 43.8801 7.77994 43.8801 8.59994V56.7999C43.8801 57.6199 43.2101 58.2799 42.3901 58.2799ZM13.4801 7.10994H16.4501V4.13994C16.4501 2.91994 17.4501 1.91994 18.6701 1.91994H27.5701C28.8001 1.91994 29.7901 2.91994 29.7901 4.13994V7.10994H32.7601V13.0599H13.4801V7.10994ZM45.3601 8.59994C45.3601 6.95994 44.0301 5.62994 42.3901 5.62994H31.2701V4.14994C31.2701 2.10994 29.6101 0.449941 27.5601 0.439941H18.6601C16.6101 0.449941 14.9601 2.09994 14.9501 4.14994V5.62994H3.84012C2.20012 5.62994 0.880117 6.95994 0.870117 8.59994V56.7999C0.870117 58.4399 2.20012 59.7699 3.84012 59.7699H42.4001C44.0401 59.7699 45.3701 58.4399 45.3701 56.7999L45.3601 8.59994Z" fill="#0744A3"/>
</svg>
