<svg width="32" height="68" viewBox="0 0 32 68" fill="none" xmlns="http://www.w3.org/2000/svg">
<path d="M16.3184 48.71V35.44H16.8984L22.4284 48.72H16.3184V48.71ZM8.71844 48.71L14.2484 35.43H14.8284V48.71H8.71844ZM10.3884 33.21V26.8H20.6884V33.21C20.6884 33.62 20.3584 33.95 19.9484 33.95H11.1284C10.7184 33.95 10.3884 33.62 10.3884 33.21ZM13.3484 22.36H17.7984V25.33H13.3484V22.36ZM10.3884 14.62C10.3884 13.76 10.4984 12.91 10.7284 12.08L12.1084 6.99997C12.1984 6.67997 12.4884 6.45997 12.8184 6.45997H18.3184C18.6484 6.45997 18.9484 6.67997 19.0284 6.99997L20.4184 12.08C20.6384 12.91 20.7584 13.76 20.7584 14.62V20.88H10.3884V14.62ZM31.0884 65.64L18.4984 35.44H19.9384C21.1684 35.44 22.1584 34.44 22.1584 33.22V25.33H19.2784V22.36H22.2484V14.62C22.2484 13.63 22.1184 12.65 21.8584 11.69L20.4684 6.60997C20.2084 5.64997 19.3284 4.96997 18.3284 4.96997H12.8284C11.8284 4.96997 10.9484 5.63997 10.6884 6.60997L9.29844 11.69C9.03844 12.64 8.90844 13.63 8.90844 14.62V22.36H11.8784V25.33H8.90844V33.22C8.90844 34.45 9.90844 35.44 11.1284 35.44H12.6484L0.0584414 65.64C-0.101559 66.02 0.078441 66.45 0.458441 66.61C0.838441 66.77 1.26844 66.59 1.42844 66.21L8.10844 50.18C8.12844 50.18 8.13844 50.19 8.15844 50.19H14.8284V61.8C14.8284 62.21 15.1584 62.54 15.5684 62.54C15.9784 62.54 16.3084 62.21 16.3084 61.8V50.2H22.9784C22.9984 50.2 23.0084 50.19 23.0284 50.19L29.7084 66.22C29.8684 66.6 30.2984 66.78 30.6784 66.62C31.0584 66.46 31.2484 66.02 31.0884 65.64Z" fill="#0744A3"/>
<mask id="mask0_2825_228" style="mask-type:luminance" maskUnits="userSpaceOnUse" x="0" y="0" width="31" height="68">
<path d="M30.4585 0H0.458496V68H30.4585V0Z" fill="white"/>
</mask>
<g mask="url(#mask0_2825_228)">
<path d="M15.5784 12.39C15.1684 12.39 14.8384 12.06 14.8384 11.65C14.8384 11.24 15.1684 10.91 15.5784 10.91C15.9884 10.91 16.3184 11.24 16.3184 11.65C16.3184 12.06 15.9884 12.39 15.5784 12.39ZM15.5784 9.42004C14.3484 9.42004 13.3584 10.41 13.3584 11.64C13.3584 12.87 14.3584 13.86 15.5784 13.86C16.8084 13.86 17.7984 12.86 17.7984 11.64C17.7984 10.42 16.7984 9.42004 15.5784 9.42004Z" fill="#0744A3"/>
</g>
</svg>
