<svg width="51" height="51" viewBox="0 0 51 51" fill="none" xmlns="http://www.w3.org/2000/svg">
<path d="M50.39 48.94H1.48V0.0100098H0V50.42H50.39V48.94Z" fill="#0744A3"/>
<path d="M48.9298 43.01H40.0298V1.49001H48.9298V43.01ZM50.4198 0.0100098H38.5498V44.49H50.4098L50.4198 0.0100098Z" fill="#0744A3"/>
<path d="M23.72 17.8001H32.62V43.0101H23.72V17.8001ZM22.24 44.4901H34.1V16.3201H22.24V44.4901Z" fill="#0744A3"/>
<path d="M7.40993 31.1399H16.3099V42.9999H7.40993V31.1399ZM5.92993 44.4899H17.7899V29.6599H5.92993V44.4899Z" fill="#0744A3"/>
<path d="M6.4499 24.25L28.1599 2.54H28.1699C28.1699 2.54 28.1699 2.54 28.1699 2.55V9.64H29.6499V0H20.0299V1.48H27.0999C27.0999 1.48 27.1099 1.48 27.1099 1.49L5.3999 23.19L6.4499 24.25Z" fill="#0744A3"/>
</svg>
