<svg width="69" height="55" viewBox="0 0 69 55" fill="none" xmlns="http://www.w3.org/2000/svg">
<path d="M14.2446 45.4301V45.2201C14.2446 43.9901 13.2446 43.0001 12.0246 43.0001H9.0546V41.1101C7.9046 40.6001 6.9946 39.6801 6.4846 38.5401L4.3146 37.9401C3.7346 37.7801 3.3046 37.2901 3.2346 36.6901L1.4746 21.9801C1.3746 21.1701 1.9546 20.4301 2.7646 20.3301C2.8046 20.3301 2.8346 20.3201 2.8646 20.3201L11.0446 19.8401C11.0746 19.8401 11.1046 19.8401 11.1346 19.8401C11.8746 19.8401 12.5046 20.3901 12.6046 21.1301L13.0346 24.4601L14.2846 22.5501L14.0746 20.9401C13.8646 19.4001 12.5146 18.2801 10.9646 18.3601L8.25461 18.5201L7.6146 14.5801C7.4846 13.7701 8.0346 13.0101 8.8446 12.8801C8.8946 12.8701 8.9346 12.8701 8.9846 12.8601L15.6346 12.4201C15.6646 12.4201 15.7046 12.4201 15.7346 12.4201C16.4646 12.4201 17.0946 12.9601 17.1946 13.6801L17.7446 17.2601L18.9546 15.4001L18.6546 13.4501C18.4246 11.9201 17.0646 10.8301 15.5246 10.9401L14.8346 10.9901L14.5146 8.14013C14.4246 7.33013 15.0046 6.59013 15.8146 6.50013C15.8346 6.50013 15.8546 6.50013 15.8646 6.49013L21.0546 6.09013C21.0946 6.09013 21.1346 6.08013 21.1746 6.08013C21.9346 6.08013 22.5746 6.65013 22.6446 7.41013L22.9446 10.2501C23.3846 9.95013 23.8546 9.69013 24.3546 9.49013L24.1246 7.26013C23.9646 5.66013 22.5546 4.48013 20.9446 4.61013L15.7546 5.01013C14.1246 5.14013 12.8946 6.56013 13.0246 8.19013C13.0246 8.22013 13.0346 8.26013 13.0346 8.29013L13.3446 11.0701L8.87461 11.3701C7.24461 11.4801 6.0046 12.8901 6.1146 14.5301C6.1246 14.6201 6.1346 14.7201 6.1446 14.8101L6.7646 18.6001L2.7946 18.8301C1.1546 18.9301 -0.0853957 20.3301 0.00460435 21.9601C0.00460435 22.0201 0.0146043 22.0801 0.0246043 22.1401L1.7946 36.8501C1.9346 38.0401 2.7846 39.0301 3.9446 39.3501L7.6046 40.3601V42.9801H4.6046C3.3746 42.9801 2.3846 43.9801 2.3846 45.2001V45.4101C1.6746 45.8201 1.4346 46.7301 1.8446 47.4401C2.2546 48.1501 3.1646 48.3901 3.8746 47.9801C4.5846 47.5701 4.8246 46.6601 4.4146 45.9501C4.2846 45.7301 4.0946 45.5401 3.8746 45.4101V45.2201C3.8746 44.8101 4.2046 44.4801 4.6146 44.4801H7.5846V45.4301C6.8746 45.8401 6.6346 46.7501 7.0446 47.4601C7.4546 48.1701 8.3646 48.4101 9.0746 48.0001C9.78461 47.5901 10.0246 46.6801 9.6146 45.9701C9.4846 45.7501 9.29461 45.5601 9.0746 45.4301V44.4801H12.0446C12.4546 44.4801 12.7846 44.8101 12.7846 45.2201V45.4301C12.0746 45.8401 11.8346 46.7501 12.2446 47.4601C12.6546 48.1701 13.5646 48.4101 14.2746 48.0001C14.9846 47.5901 15.2246 46.6801 14.8146 45.9701C14.6646 45.7501 14.4746 45.5601 14.2446 45.4301Z" fill="#0744A3"/>
<path d="M64.1946 39.37C65.3546 39.05 66.2047 38.06 66.3447 36.87L68.1146 22.16C68.3046 20.53 67.1446 19.06 65.5146 18.86C65.4546 18.85 65.3946 18.85 65.3346 18.84L61.3646 18.61L61.9846 14.82C62.2446 13.2 61.1546 11.68 59.5346 11.42C59.4446 11.41 59.3446 11.39 59.2546 11.39L54.7846 11.09L55.0946 8.31003C55.2746 6.68003 54.1046 5.22003 52.4746 5.04003C52.4446 5.04003 52.4046 5.03003 52.3746 5.03003L47.1846 4.63003C45.5846 4.50003 44.1746 5.68003 44.0046 7.28003L43.7646 9.59003C44.2646 9.81003 44.7346 10.09 45.1646 10.42L45.4746 7.43003C45.5546 6.67003 46.1846 6.10003 46.9446 6.10003C46.9846 6.10003 47.0246 6.10003 47.0646 6.11003L52.2546 6.51003C53.0746 6.57003 53.6846 7.29003 53.6246 8.10003C53.6246 8.12003 53.6246 8.13003 53.6246 8.15003L53.3046 11L52.6146 10.95C51.0746 10.84 49.7146 11.93 49.4846 13.46L49.1446 15.68L50.3546 17.54L50.9446 13.69C51.0546 12.96 51.6746 12.43 52.4046 12.43C52.4346 12.43 52.4746 12.43 52.5046 12.43L59.1546 12.87C59.9746 12.92 60.5946 13.63 60.5346 14.45C60.5346 14.5 60.5246 14.54 60.5246 14.59L59.8846 18.53L57.1746 18.37C55.6246 18.28 54.2646 19.41 54.0646 20.95L53.8246 22.82L55.0746 24.73L55.5346 21.13C55.6346 20.39 56.2646 19.84 57.0046 19.84C57.0346 19.84 57.0646 19.84 57.0946 19.84L65.2646 20.32C66.0846 20.37 66.7047 21.07 66.6646 21.89C66.6546 21.92 66.6546 21.95 66.6546 21.98L64.8847 36.7C64.8147 37.3 64.3846 37.79 63.8046 37.95L61.4046 38.62C60.9146 39.66 60.0946 40.51 59.0646 41.03V43.02H56.0946C54.8646 43.02 53.8746 44.02 53.8746 45.24V45.51C53.2046 45.98 53.0446 46.9 53.5146 47.58C53.9846 48.25 54.9046 48.41 55.5846 47.94C56.2546 47.47 56.4146 46.55 55.9446 45.87C55.7946 45.66 55.5946 45.49 55.3646 45.38V45.22C55.3646 44.81 55.6946 44.48 56.1046 44.48H59.0746V45.43C58.3646 45.84 58.1246 46.75 58.5346 47.46C58.9446 48.17 59.8546 48.41 60.5546 48C61.2646 47.59 61.5046 46.68 61.0946 45.97C60.9646 45.75 60.7746 45.56 60.5546 45.43V44.48H63.5247C63.9347 44.48 64.2646 44.81 64.2646 45.22V45.43C63.5646 45.84 63.3146 46.75 63.7246 47.46C64.1346 48.17 65.0446 48.41 65.7546 48C66.4646 47.59 66.7046 46.68 66.2946 45.97C66.1646 45.75 65.9746 45.56 65.7546 45.43V45.22C65.7546 43.99 64.7646 43 63.5346 43H60.5646V40.38L64.1946 39.37Z" fill="#0744A3"/>
<path d="M33.9347 42.2601C27.7147 42.2601 21.5247 41.4501 15.5147 39.8401L10.6947 38.5501C9.58472 38.3101 8.88472 37.2201 9.12472 36.1101C9.17472 35.8601 9.28472 35.6201 9.42472 35.4001L23.5347 13.7701C24.4047 12.5501 25.8147 11.8401 27.3047 11.8501H40.5847C42.0747 11.8301 43.4847 12.5501 44.3547 13.7701L58.4747 35.3901C59.1047 36.3301 58.8547 37.6001 57.9247 38.2401C57.7047 38.3901 57.4647 38.4901 57.2147 38.5401L52.2847 39.8501C46.2947 41.4501 40.1247 42.2601 33.9347 42.2601ZM43.5947 50.6301C43.5947 50.9701 43.3647 51.2601 43.0447 51.3501L42.6047 51.4701C36.9247 52.9801 30.9647 53.0301 25.2647 51.6101L24.1347 51.3201C23.8047 51.2401 23.5747 50.9401 23.5747 50.6001V42.9901C27.0047 43.4901 30.4647 43.7401 33.9347 43.7401C37.1647 43.7401 40.3947 43.5201 43.5947 43.0901V50.6301ZM57.5847 39.9801C58.7447 39.6801 59.6747 38.8401 60.1047 37.7301C60.4947 36.6801 60.3447 35.5001 59.7047 34.5801L45.5947 12.9701L45.5847 12.9501L45.5747 12.9301C44.4347 11.3101 42.5647 10.3601 40.5847 10.3701H27.3047C25.3247 10.3501 23.4547 11.3101 22.3147 12.9301L22.3047 12.9501L22.2947 12.9701L8.19472 34.5801C7.55472 35.5001 7.40472 36.6801 7.79472 37.7301C8.21472 38.8401 9.15472 39.6801 10.3047 39.9801L15.1247 41.2701C17.4247 41.8801 19.7447 42.3801 22.0847 42.7701V50.6001C22.0847 51.6201 22.7847 52.5101 23.7747 52.7601L24.8947 53.0401C30.8347 54.5301 37.0647 54.4801 42.9847 52.9001L43.4247 52.7801C44.3947 52.5201 45.0747 51.6401 45.0747 50.6301V42.8801C47.6247 42.4901 50.1647 41.9601 52.6547 41.3001L57.5847 39.9801Z" fill="#0744A3"/>
<path d="M28.8147 3.70012C28.8147 3.37012 28.9347 3.06012 29.1547 2.82012C29.4247 2.63012 29.7247 2.47012 30.0347 2.35012C32.5847 1.18012 35.5147 1.20012 38.0547 2.38012C38.3147 2.48012 38.5547 2.63012 38.7747 2.80012C39.0047 3.04012 39.1447 3.37012 39.1347 3.70012V8.90012H40.6147V3.70012C40.6147 2.96012 40.3247 2.26012 39.8047 1.74012C39.4747 1.45012 39.0947 1.21012 38.6847 1.04012C35.7547 -0.329876 32.3647 -0.349876 29.4147 1.00012C28.9547 1.18012 28.5147 1.43012 28.1247 1.74012C27.6047 2.26012 27.3047 2.97012 27.3047 3.71012V8.91012H28.7847L28.8147 3.70012Z" fill="#0744A3"/>
</svg>
