<svg width="60" height="54" viewBox="0 0 60 54" fill="none" xmlns="http://www.w3.org/2000/svg">
<mask id="mask0_2825_726" style="mask-type:luminance" maskUnits="userSpaceOnUse" x="0" y="0" width="60" height="54">
<path d="M60 0H0V54H60V0Z" fill="white"/>
</mask>
<g mask="url(#mask0_2825_726)">
<path d="M43.46 36.95V35.47H38.27V43.63H36.79V45.11H50.88V19.9H44.62L43.14 21.38H49.4V28.8H37.53V30.28H49.4V35.47H47.17V36.95H49.4V43.63H39.76V36.95H43.46Z" fill="#0744A3"/>
<path d="M2.67995 48.07C2.67995 46.02 4.33995 44.36 6.38995 44.36C8.43995 44.36 10.1 46.02 10.1 48.07C10.1 50.12 8.43995 51.78 6.38995 51.78C4.33995 51.78 2.67995 50.12 2.67995 48.07ZM2.67995 8.77997C2.67995 6.72997 4.33995 5.06997 6.38995 5.06997C8.43995 5.06997 10.1 6.72997 10.1 8.77997V44.45C8.10995 42.4 4.82995 42.36 2.77995 44.35C2.74995 44.38 2.71995 44.41 2.67995 44.45V8.77997ZM53.52 11.01L52.04 12.49H57.5499V51.78H10.02C10.83 50.98 11.36 49.94 11.53 48.81L11.59 48.07V12.48H36.4L37.88 11H11.58V8.77997C11.58 5.90997 9.25995 3.58997 6.38995 3.58997C3.51995 3.58997 1.19995 5.91997 1.19995 8.77997V48.07L1.25995 48.81C1.60995 51.23 3.61995 53.08 6.05995 53.24L59.0299 53.26V11.01H53.52Z" fill="#0744A3"/>
<path d="M27.52 21.38L29 19.9H18.25V45.11H32.34V43.63H30.86V35.47H25.67V36.95H29.38V43.63H19.74V36.95H21.96V35.47H19.74V30.34H24.3L24.79 28.85H19.74V21.38H27.52Z" fill="#0744A3"/>
<path d="M30.38 23.7701L30.68 23.4701C30.98 23.2901 31.32 23.1901 31.67 23.1901C32.17 23.1901 32.64 23.3901 32.99 23.7401C33.62 24.3501 33.72 25.3301 33.22 26.0601L32.96 26.3201L29.86 27.3401L29.36 26.8401L30.38 23.7701ZM48.42 5.70006L48.67 5.45006L51.24 8.02006L50.98 8.30005L34.95 24.3301C34.67 23.0501 33.66 22.0501 32.37 21.7701L48.42 5.70006ZM52 2.12006L54.55 4.67006L52.27 6.95006L49.72 4.40005L52 2.12006ZM26.78 29.9101L33.76 27.6101L55.59 5.71006C56.16 5.21006 56.22 4.33006 55.72 3.76006C55.69 3.73006 55.66 3.70006 55.63 3.67006L53.03 1.07005C52.47 0.500055 51.54 0.490055 50.97 1.05006C50.96 1.06006 50.96 1.06005 50.95 1.07005L29.08 22.9701L26.78 29.9101Z" fill="#0744A3"/>
</g>
</svg>
