<svg width="60" height="51" viewBox="0 0 60 51" fill="none" xmlns="http://www.w3.org/2000/svg">
<path d="M15.5798 9.64992H18.1798V12.2499H15.5798V9.64992ZM41.5098 20.7899L40.8098 20.7999L40.3798 21.3499L38.9698 23.1199C38.9598 23.1299 38.9598 23.1299 38.9598 23.1199L38.9898 17.1099C38.9898 17.0999 38.9998 17.0999 38.9998 17.0999L43.7898 20.7299C43.7998 20.7399 43.7998 20.7399 43.7898 20.7399L41.5098 20.7899ZM31.8998 31.8899H29.2998V29.2899H31.8998V31.8899ZM18.1798 13.7399H19.6598V12.4499C26.7598 14.5499 30.1098 19.6099 29.8598 27.8199H27.8198V33.3899H33.3898V27.8199H31.3498C31.5698 20.2699 28.8498 15.0599 23.2598 12.2699C23.2398 12.2599 23.2398 12.2499 23.2598 12.2599L35.2698 14.4699C35.4398 15.5499 36.3698 16.3399 37.4598 16.3399C37.4798 16.3399 37.4898 16.3399 37.5098 16.3399L37.4598 26.3499C37.4598 26.5099 37.5598 26.6499 37.7098 26.6999C37.7498 26.7099 37.7898 26.7199 37.8298 26.7199C37.9498 26.7199 38.0498 26.6699 38.1298 26.5799L41.5498 22.2899L47.0498 22.1899C47.2598 22.1899 47.4198 22.0199 47.4198 21.8199C47.4198 21.6999 47.3698 21.5899 47.2698 21.5199L39.2398 15.4499C39.6498 14.9099 39.7798 14.2199 39.6198 13.5699C39.3198 12.3799 38.1098 11.6699 36.9198 11.9699C36.3398 12.1199 35.8398 12.4999 35.5398 13.0199L19.6598 10.0999V8.16992H14.0898V13.7399H18.1798Z" fill="#0744A3"/>
<path d="M57.84 38.57C57.84 39.39 57.18 40.05 56.36 40.05H2.97C2.15 40.05 1.49 39.39 1.49 38.57V2.97C1.49 2.15 2.15 1.49 2.97 1.49H56.35C57.17 1.49 57.83 2.15 57.83 2.97V38.57H57.84ZM33.37 48.95H25.96V41.54H33.37V48.95ZM56.36 0H2.97C1.33 0 0.01 1.33 0 2.97V38.57C0.01 40.21 1.33 41.53 2.97 41.54H24.47V48.95H16.31V50.43H43V48.95H34.84V41.54H56.34C57.98 41.53 59.3 40.21 59.31 38.57V2.97C59.32 1.33 57.99 0.01 56.36 0Z" fill="#0744A3"/>
<path d="M54.1302 36.34H5.20021V5.18996H54.1402V36.34H54.1302ZM5.20021 3.70996H3.72021V37.83H55.6202V3.70996H5.20021Z" fill="#0744A3"/>
</svg>
