<svg width="63" height="62" viewBox="0 0 63 62" fill="none" xmlns="http://www.w3.org/2000/svg">
<path d="M2.54996 47.71L48.17 2.11L60.17 14.23L54.99 19.41L48.18 12.6L47.13 13.65L53.95 20.46L49.23 25.18L45.04 20.99L43.99 22.04L48.18 26.23L43.46 30.95L36.65 24.14L35.6 25.19L42.41 32L37.69 36.72L33.5 32.53L32.45 33.58L36.64 37.77L31.92 42.49L25.11 35.68L24.06 36.73L30.87 43.54L26.15 48.26L21.96 44.07L20.91 45.12L25.1 49.31L20.38 54.03L13.57 47.22L12.52 48.27L19.33 55.08L14.61 59.8L2.54996 47.71ZM48.18 0L0.459961 47.71L14.62 61.86L62.26 14.23L48.18 0Z" fill="#0744A3"/>
</svg>
