<svg width="49" height="66" viewBox="0 0 49 66" fill="none" xmlns="http://www.w3.org/2000/svg">
<mask id="mask0_2825_54" style="mask-type:luminance" maskUnits="userSpaceOnUse" x="0" y="0" width="49" height="66">
<path d="M49 0H0V66H49V0Z" fill="white"/>
</mask>
<g mask="url(#mask0_2825_54)">
<mask id="mask1_2825_54" style="mask-type:luminance" maskUnits="userSpaceOnUse" x="0" y="0" width="48" height="66">
<path d="M48 0H0V66H48V0Z" fill="white"/>
</mask>
<g mask="url(#mask1_2825_54)">
<path d="M24.12 34.5601C21.53 34.6201 18.95 34.12 16.57 33.1L17.09 32.89C18.21 32.44 18.93 31.35 18.93 30.15V28.7C22.14 30.57 26.1 30.58 29.31 28.7V30.14C29.31 31.34 30.04 32.43 31.15 32.88L31.67 33.09C29.28 34.12 26.71 34.6201 24.12 34.5601ZM15.22 19.73V16.02C15.22 15.61 15.55 15.28 15.96 15.28H32.27C32.68 15.28 33.01 15.61 33.01 16.02V19.73C33.01 24.64 29.03 28.63 24.11 28.63C19.19 28.63 15.22 24.65 15.22 19.73ZM14.21 32.47C13.58 32.7 12.99 32.93 12.41 33.16L12.3 14.8C12.22 11.26 13.71 7.87005 16.36 5.53005C19.02 3.22005 22.58 2.24005 26.05 2.85005C26.26 2.89005 26.44 3.01005 26.56 3.19005L27.32 4.25005C27.56 4.58005 28.02 4.66005 28.35 4.42005L29.04 3.93005C29.11 3.88005 29.2 3.87005 29.28 3.90005C32.39 5.46005 34.68 8.27005 35.59 11.63C35.87 12.73 36 13.85 35.98 14.99C35.96 19.39 35.86 29.98 35.83 33.16C35.27 32.93 34.69 32.71 34.08 32.48L31.71 31.51C31.15 31.28 30.79 30.74 30.79 30.14V27.67C33.14 25.7 34.5 22.79 34.5 19.73V16.02C34.5 14.79 33.5 13.8 32.28 13.8H15.96C14.73 13.8 13.74 14.8 13.74 16.02V19.73C13.74 22.79 15.1 25.69 17.44 27.66V30.14C17.44 30.74 17.08 31.29 16.52 31.52L14.21 32.47ZM33.41 33.82C37.59 35.3801 40.8 37.0401 42.91 38.84C44.1 39.7901 44.82 41.2101 44.88 42.7401L46.18 53.14C46.29 53.94 45.94 54.74 45.27 55.21C44.21 55.91 43.09 56.49 41.91 56.94V58.5401C43.38 58.0101 44.79 57.3 46.1 56.44C47.22 55.66 47.82 54.32 47.64 52.9701L46.35 42.68C46.26 40.75 45.36 38.9501 43.87 37.7201C41.88 36.1101 39.67 34.7901 37.3 33.8101C37.32 31.7601 37.43 19.77 37.46 15.02C37.48 13.75 37.34 12.49 37.02 11.27C36 7.51005 33.43 4.36005 29.94 2.61005C29.37 2.33005 28.69 2.39005 28.18 2.76005L28.1 2.82005L27.77 2.36005C27.42 1.87005 26.9 1.53005 26.31 1.42005C22.4 0.730048 18.39 1.84005 15.39 4.43005C12.41 7.05005 10.73 10.86 10.81 14.83L10.93 33.8101C8.56002 34.7901 6.35002 36.1101 4.36002 37.7201C2.87002 38.9501 1.96002 40.75 1.87002 42.68L0.590018 52.9701C0.420018 54.32 1.02002 55.6501 2.14002 56.43C3.45002 57.2901 4.85002 58 6.32002 58.53V56.93C5.14002 56.4701 4.02002 55.89 2.97002 55.2001C2.31002 54.7401 1.96002 53.94 2.06002 53.14L3.35002 42.8101L3.36002 42.7401C3.42002 41.2201 4.13002 39.8 5.32002 38.84C7.47002 37.01 10.53 35.4001 14.82 33.82C16.83 35.2001 20.33 36.0401 24.11 36.0401C27.89 36.0401 31.4 35.2001 33.41 33.82Z" fill="#0744A3"/>
</g>
<mask id="mask2_2825_54" style="mask-type:luminance" maskUnits="userSpaceOnUse" x="-1" y="1" width="50" height="65">
<path d="M49 1H-1V66H49V1Z" fill="white"/>
</mask>
<g mask="url(#mask2_2825_54)">
<path d="M44.1401 61.3901V61.59C44.1401 62.22 43.6301 62.7301 43.0001 62.7301H5.25012C4.62012 62.7301 4.11012 62.22 4.10012 61.59V61.3901H9.29012V43.1101C9.29012 42.4801 9.80012 41.9701 10.4301 41.9701H37.8001C38.4301 41.9701 38.9401 42.4801 38.9401 43.1101V61.38H44.1401V61.3901ZM40.4301 43.1101C40.4301 41.6601 39.2401 40.4801 37.7901 40.4901H10.4401C8.99012 40.4901 7.81012 41.6601 7.81012 43.1101V59.9001H2.62012V61.59C2.63012 63.04 3.80012 64.2101 5.25012 64.2101H43.0101C44.4501 64.2001 45.6201 63.03 45.6301 61.59V59.9101H40.4401L40.4301 43.1101Z" fill="#0744A3"/>
</g>
</g>
<mask id="mask3_2825_54" style="mask-type:luminance" maskUnits="userSpaceOnUse" x="0" y="1" width="48" height="65">
<path d="M48 1H0V66H48V1Z" fill="white"/>
</mask>
<g mask="url(#mask3_2825_54)">
<path d="M21.6699 56.19L23.0499 56.76L26.5199 48.37L25.1499 47.8L21.6699 56.19Z" fill="#0744A3"/>
<path d="M19.2298 47.9299L15.0698 52.0899L19.2298 56.2399L20.2798 55.1999L17.1698 52.0899L20.2798 48.9699L19.2298 47.9299Z" fill="#0744A3"/>
<path d="M27.9302 48.9699L31.0402 52.0899L27.9302 55.1999L28.9802 56.2399L33.1402 52.0899L28.9802 47.9299L27.9302 48.9699Z" fill="#0744A3"/>
</g>
</svg>
