<svg width="131" height="59" viewBox="0 0 131 59" fill="none" xmlns="http://www.w3.org/2000/svg">
<path d="M69.5433 19.9091H71.9148V28.4616C71.9148 29.3991 71.6932 30.2237 71.25 30.9354C70.8111 31.647 70.1932 32.2031 69.3963 32.6037C68.5994 33 67.6683 33.1982 66.603 33.1982C65.5334 33.1982 64.6001 33 63.8033 32.6037C63.0064 32.2031 62.3885 31.647 61.9496 30.9354C61.5107 30.2237 61.2912 29.3991 61.2912 28.4616V19.9091H63.6626V28.2635C63.6626 28.8089 63.782 29.2947 64.0206 29.7209C64.2635 30.147 64.6044 30.4815 65.0433 30.7244C65.4822 30.9631 66.0021 31.0824 66.603 31.0824C67.2038 31.0824 67.7237 30.9631 68.1626 30.7244C68.6058 30.4815 68.9467 30.147 69.1854 29.7209C69.424 29.2947 69.5433 28.8089 69.5433 28.2635V19.9091ZM74.3901 36.6818V23.1818H76.6657V24.8054H76.7999C76.9192 24.5668 77.0875 24.3132 77.3049 24.0447C77.5222 23.772 77.8162 23.5398 78.187 23.348C78.5577 23.152 79.0307 23.054 79.606 23.054C80.3645 23.054 81.0485 23.2479 81.6578 23.6357C82.2715 24.0192 82.7573 24.5881 83.1152 25.3423C83.4775 26.0923 83.6586 27.0128 83.6586 28.1037C83.6586 29.1818 83.4817 30.098 83.128 30.8523C82.7743 31.6065 82.2928 32.1818 81.6834 32.5781C81.074 32.9744 80.3837 33.1726 79.6124 33.1726C79.0499 33.1726 78.5833 33.0788 78.2125 32.8913C77.8418 32.7038 77.5435 32.478 77.3176 32.2138C77.0961 31.9453 76.9235 31.6918 76.7999 31.4531H76.704V36.6818H74.3901ZM76.6593 28.0909C76.6593 28.7259 76.7488 29.282 76.9277 29.7592C77.111 30.2365 77.373 30.6094 77.714 30.8778C78.0591 31.142 78.4767 31.2741 78.9668 31.2741C79.4782 31.2741 79.9064 31.1378 80.2516 30.8651C80.5968 30.5881 80.8567 30.2109 81.0314 29.7337C81.2104 29.2521 81.2999 28.7045 81.2999 28.0909C81.2999 27.4815 81.2125 26.9403 81.0378 26.4673C80.8631 25.9943 80.6032 25.6236 80.258 25.3551C79.9128 25.0866 79.4824 24.9524 78.9668 24.9524C78.4725 24.9524 78.0527 25.0824 77.7076 25.3423C77.3624 25.6023 77.1003 25.9666 76.9213 26.4354C76.7466 26.9041 76.6593 27.456 76.6593 28.0909ZM93.4 25.777L91.2907 26.0071C91.231 25.794 91.1266 25.5938 90.9775 25.4062C90.8326 25.2188 90.6365 25.0675 90.3894 24.9524C90.1422 24.8374 89.8397 24.7798 89.4817 24.7798C89.0002 24.7798 88.5953 24.8842 88.2672 25.093C87.9434 25.3018 87.7836 25.5724 87.7878 25.9048C87.7836 26.1903 87.888 26.4226 88.101 26.6016C88.3184 26.7805 88.6763 26.9276 89.1749 27.0426L90.8496 27.4006C91.7786 27.6009 92.4689 27.9183 92.9206 28.353C93.3766 28.7876 93.6067 29.3565 93.611 30.0597C93.6067 30.6776 93.4256 31.223 93.0676 31.696C92.714 32.1648 92.2218 32.5312 91.5911 32.7955C90.9604 33.0597 90.236 33.1918 89.4178 33.1918C88.2161 33.1918 87.2488 32.9403 86.5158 32.4375C85.7828 31.9304 85.3461 31.2251 85.2054 30.3217L87.4618 30.1044C87.5641 30.5476 87.7814 30.8821 88.1138 31.108C88.4462 31.3338 88.8787 31.4467 89.4114 31.4467C89.9611 31.4467 90.4022 31.3338 90.7346 31.108C91.0712 30.8821 91.2395 30.603 91.2395 30.2706C91.2395 29.9893 91.1309 29.7571 90.9135 29.5739C90.7005 29.3906 90.3681 29.25 89.9164 29.152L88.2417 28.8004C87.2999 28.6044 86.6032 28.2741 86.1515 27.8097C85.6998 27.3409 85.476 26.7486 85.4803 26.0327C85.476 25.4276 85.6401 24.9034 85.9725 24.4602C86.3091 24.0128 86.7757 23.6676 87.3723 23.4247C87.9732 23.1776 88.6657 23.054 89.4498 23.054C90.6003 23.054 91.5059 23.299 92.1664 23.7891C92.8311 24.2791 93.2424 24.9418 93.4 25.777ZM99.8017 33.1918C98.8216 33.1918 97.9799 32.9766 97.2768 32.5462C96.5779 32.1158 96.0389 31.5213 95.6596 30.7628C95.2846 30 95.0971 29.1222 95.0971 28.1293C95.0971 27.1321 95.2889 26.2521 95.6724 25.4893C96.0559 24.7223 96.5971 24.1257 97.296 23.6996C97.9991 23.2692 98.8301 23.054 99.7889 23.054C100.586 23.054 101.291 23.201 101.905 23.495C102.523 23.7848 103.015 24.196 103.381 24.7287C103.748 25.2571 103.956 25.875 104.008 26.5824H101.796C101.706 26.1094 101.493 25.7152 101.157 25.3999C100.824 25.0803 100.379 24.9205 99.8208 24.9205C99.3478 24.9205 98.9324 25.0483 98.5744 25.304C98.2164 25.5554 97.9373 25.9176 97.737 26.3906C97.541 26.8636 97.443 27.4304 97.443 28.0909C97.443 28.7599 97.541 29.3352 97.737 29.8168C97.9331 30.294 98.2079 30.6626 98.5616 30.9226C98.9196 31.1783 99.3393 31.3061 99.8208 31.3061C100.162 31.3061 100.466 31.2422 100.735 31.1143C101.008 30.9822 101.236 30.7926 101.419 30.5455C101.602 30.2983 101.728 29.9979 101.796 29.6442H104.008C103.952 30.3388 103.748 30.9545 103.394 31.4915C103.04 32.0241 102.559 32.4418 101.949 32.7443C101.34 33.0426 100.624 33.1918 99.8017 33.1918ZM108.733 33.1982C108.111 33.1982 107.55 33.0874 107.052 32.8658C106.558 32.6399 106.165 32.3075 105.876 31.8686C105.59 31.4297 105.447 30.8885 105.447 30.245C105.447 29.6911 105.55 29.233 105.754 28.8707C105.959 28.5085 106.238 28.2188 106.592 28.0014C106.945 27.7841 107.344 27.62 107.787 27.5092C108.234 27.3942 108.697 27.3111 109.174 27.2599C109.749 27.2003 110.216 27.147 110.574 27.1001C110.932 27.049 111.192 26.9723 111.354 26.87C111.52 26.7635 111.603 26.5994 111.603 26.3778V26.3395C111.603 25.858 111.46 25.4851 111.175 25.2209C110.889 24.9567 110.478 24.8246 109.941 24.8246C109.374 24.8246 108.925 24.9482 108.592 25.1953C108.264 25.4425 108.043 25.7344 107.928 26.071L105.767 25.7642C105.938 25.1676 106.219 24.669 106.611 24.2685C107.003 23.8636 107.482 23.5611 108.049 23.3608C108.616 23.1562 109.242 23.054 109.928 23.054C110.401 23.054 110.872 23.1094 111.341 23.2202C111.81 23.331 112.238 23.5142 112.626 23.7699C113.013 24.0213 113.325 24.3643 113.559 24.799C113.798 25.2337 113.917 25.777 113.917 26.429V33H111.692V31.6513H111.616C111.475 31.924 111.277 32.1797 111.021 32.4183C110.77 32.6527 110.452 32.8423 110.069 32.9872C109.69 33.1278 109.244 33.1982 108.733 33.1982ZM109.334 31.4979C109.798 31.4979 110.201 31.4062 110.542 31.223C110.883 31.0355 111.145 30.7884 111.328 30.4815C111.516 30.1747 111.609 29.8402 111.609 29.478V28.321C111.537 28.3807 111.413 28.4361 111.239 28.4872C111.068 28.5384 110.876 28.5831 110.663 28.6214C110.45 28.6598 110.239 28.6939 110.031 28.7237C109.822 28.7536 109.641 28.7791 109.487 28.8004C109.142 28.8473 108.833 28.924 108.56 29.0305C108.288 29.1371 108.072 29.2862 107.915 29.478C107.757 29.6655 107.678 29.9084 107.678 30.2067C107.678 30.6328 107.834 30.9545 108.145 31.1719C108.456 31.3892 108.852 31.4979 109.334 31.4979ZM118.558 19.9091V33H116.244V19.9091H118.558ZM125.284 33.1918C124.299 33.1918 123.449 32.9872 122.733 32.5781C122.021 32.1648 121.474 31.581 121.09 30.8267C120.707 30.0682 120.515 29.1754 120.515 28.1484C120.515 27.1385 120.707 26.2521 121.09 25.4893C121.478 24.7223 122.019 24.1257 122.714 23.6996C123.409 23.2692 124.225 23.054 125.162 23.054C125.767 23.054 126.338 23.152 126.875 23.348C127.416 23.5398 127.894 23.8381 128.307 24.2429C128.725 24.6477 129.053 25.1634 129.291 25.7898C129.53 26.4119 129.649 27.1534 129.649 28.0142V28.7237H121.602V27.1641H127.431C127.427 26.7209 127.331 26.3267 127.144 25.9815C126.956 25.6321 126.694 25.3572 126.357 25.157C126.025 24.9567 125.637 24.8565 125.194 24.8565C124.721 24.8565 124.306 24.9716 123.948 25.2017C123.59 25.4276 123.311 25.7259 123.11 26.0966C122.914 26.4631 122.814 26.8658 122.81 27.3047V28.6662C122.81 29.2372 122.914 29.7273 123.123 30.1364C123.332 30.5412 123.624 30.8523 123.999 31.0696C124.374 31.2827 124.813 31.3892 125.316 31.3892C125.652 31.3892 125.957 31.3423 126.23 31.2486C126.502 31.1506 126.739 31.0078 126.939 30.8203C127.139 30.6328 127.291 30.4006 127.393 30.1236L129.553 30.3665C129.417 30.9375 129.157 31.4361 128.774 31.8622C128.394 32.2841 127.909 32.6122 127.316 32.8466C126.724 33.0767 126.046 33.1918 125.284 33.1918ZM61.2912 57V43.9091H63.6626V49.451H69.7287V43.9091H72.1065V57H69.7287V51.4389H63.6626V57H61.2912ZM78.8661 57.1918C77.9073 57.1918 77.0763 56.9808 76.3732 56.5589C75.6701 56.1371 75.1246 55.5469 74.7369 54.7884C74.3533 54.0298 74.1616 53.1435 74.1616 52.1293C74.1616 51.1151 74.3533 50.2266 74.7369 49.4638C75.1246 48.701 75.6701 48.1087 76.3732 47.6868C77.0763 47.2649 77.9073 47.054 78.8661 47.054C79.8249 47.054 80.6559 47.2649 81.359 47.6868C82.0621 48.1087 82.6055 48.701 82.989 49.4638C83.3768 50.2266 83.5707 51.1151 83.5707 52.1293C83.5707 53.1435 83.3768 54.0298 82.989 54.7884C82.6055 55.5469 82.0621 56.1371 81.359 56.5589C80.6559 56.9808 79.8249 57.1918 78.8661 57.1918ZM78.8789 55.3381C79.3988 55.3381 79.8335 55.1953 80.1829 54.9098C80.5323 54.62 80.7923 54.2322 80.9627 53.7464C81.1374 53.2607 81.2248 52.7195 81.2248 52.1229C81.2248 51.522 81.1374 50.9787 80.9627 50.4929C80.7923 50.0028 80.5323 49.6129 80.1829 49.3232C79.8335 49.0334 79.3988 48.8885 78.8789 48.8885C78.3462 48.8885 77.9031 49.0334 77.5494 49.3232C77.1999 49.6129 76.9379 50.0028 76.7631 50.4929C76.5927 50.9787 76.5075 51.522 76.5075 52.1229C76.5075 52.7195 76.5927 53.2607 76.7631 53.7464C76.9379 54.2322 77.1999 54.62 77.5494 54.9098C77.9031 55.1953 78.3462 55.3381 78.8789 55.3381ZM85.5346 57V47.1818H87.7463V48.8501H87.8613C88.0659 48.2876 88.4047 47.8487 88.8777 47.5334C89.3507 47.2138 89.9153 47.054 90.5716 47.054C91.2363 47.054 91.7967 47.2159 92.2527 47.5398C92.7129 47.8594 93.0368 48.2962 93.2243 48.8501H93.3265C93.5439 48.3047 93.9103 47.87 94.426 47.5462C94.9458 47.218 95.5616 47.054 96.2733 47.054C97.1767 47.054 97.9139 47.3395 98.4849 47.9105C99.0559 48.4815 99.3414 49.3146 99.3414 50.4098V57H97.0211V50.7678C97.0211 50.1584 96.8592 49.7131 96.5353 49.4318C96.2115 49.1463 95.8152 49.0036 95.3464 49.0036C94.7882 49.0036 94.3514 49.1783 94.036 49.5277C93.725 49.8729 93.5694 50.3224 93.5694 50.8764V57H91.3002V50.6719C91.3002 50.1648 91.1468 49.7599 90.84 49.4574C90.5375 49.1548 90.1412 49.0036 89.6511 49.0036C89.3187 49.0036 89.0162 49.0888 88.7434 49.2592C88.4707 49.4254 88.2534 49.6619 88.0914 49.9688C87.9295 50.2713 87.8485 50.625 87.8485 51.0298V57H85.5346ZM106.036 57.1918C105.051 57.1918 104.201 56.9872 103.485 56.5781C102.773 56.1648 102.226 55.581 101.842 54.8267C101.459 54.0682 101.267 53.1754 101.267 52.1484C101.267 51.1385 101.459 50.2521 101.842 49.4893C102.23 48.7223 102.771 48.1257 103.466 47.6996C104.161 47.2692 104.977 47.054 105.914 47.054C106.519 47.054 107.09 47.152 107.627 47.348C108.168 47.5398 108.646 47.8381 109.059 48.2429C109.477 48.6477 109.805 49.1634 110.043 49.7898C110.282 50.4119 110.401 51.1534 110.401 52.0142V52.7237H102.354V51.1641H108.183C108.179 50.7209 108.083 50.3267 107.896 49.9815C107.708 49.6321 107.446 49.3572 107.109 49.157C106.777 48.9567 106.389 48.8565 105.946 48.8565C105.473 48.8565 105.058 48.9716 104.7 49.2017C104.342 49.4276 104.063 49.7259 103.862 50.0966C103.666 50.4631 103.566 50.8658 103.562 51.3047V52.6662C103.562 53.2372 103.666 53.7273 103.875 54.1364C104.084 54.5412 104.376 54.8523 104.751 55.0696C105.126 55.2827 105.565 55.3892 106.067 55.3892C106.404 55.3892 106.709 55.3423 106.982 55.2486C107.254 55.1506 107.491 55.0078 107.691 54.8203C107.891 54.6328 108.043 54.4006 108.145 54.1236L110.305 54.3665C110.169 54.9375 109.909 55.4361 109.526 55.8622C109.146 56.2841 108.661 56.6122 108.068 56.8466C107.476 57.0767 106.798 57.1918 106.036 57.1918ZM120.119 49.777L118.009 50.0071C117.95 49.794 117.845 49.5938 117.696 49.4062C117.551 49.2188 117.355 49.0675 117.108 48.9524C116.861 48.8374 116.558 48.7798 116.2 48.7798C115.719 48.7798 115.314 48.8842 114.986 49.093C114.662 49.3018 114.502 49.5724 114.507 49.9048C114.502 50.1903 114.607 50.4226 114.82 50.6016C115.037 50.7805 115.395 50.9276 115.894 51.0426L117.568 51.4006C118.497 51.6009 119.188 51.9183 119.639 52.353C120.095 52.7876 120.325 53.3565 120.33 54.0597C120.325 54.6776 120.144 55.223 119.786 55.696C119.433 56.1648 118.941 56.5312 118.31 56.7955C117.679 57.0597 116.955 57.1918 116.137 57.1918C114.935 57.1918 113.968 56.9403 113.235 56.4375C112.502 55.9304 112.065 55.2251 111.924 54.3217L114.181 54.1044C114.283 54.5476 114.5 54.8821 114.833 55.108C115.165 55.3338 115.597 55.4467 116.13 55.4467C116.68 55.4467 117.121 55.3338 117.453 55.108C117.79 54.8821 117.958 54.603 117.958 54.2706C117.958 53.9893 117.85 53.7571 117.632 53.5739C117.419 53.3906 117.087 53.25 116.635 53.152L114.96 52.8004C114.019 52.6044 113.322 52.2741 112.87 51.8097C112.419 51.3409 112.195 50.7486 112.199 50.0327C112.195 49.4276 112.359 48.9034 112.691 48.4602C113.028 48.0128 113.494 47.6676 114.091 47.4247C114.692 47.1776 115.384 47.054 116.169 47.054C117.319 47.054 118.225 47.299 118.885 47.7891C119.55 48.2791 119.961 48.9418 120.119 49.777Z" fill="#0744A3"/>
<path d="M27.5671 39.3299L36.9725 37.8554L38.6824 39.4836V22.244L27.5671 15.8223V39.3299ZM35.4582 22.3048L37.0149 23.2034V25.5213L35.4582 24.6227V22.3048ZM35.4582 26.6123L37.0149 27.5109V29.8289L35.4582 28.9303V26.6123ZM35.4582 30.9205L37.0149 31.8191V34.137L35.4582 33.2384V30.9205ZM32.348 20.5076L33.9021 21.4087V23.7267L32.348 22.8256V20.5076ZM32.348 24.8158L33.9021 25.7169V28.0349L32.348 27.1337V24.8158ZM32.348 29.1233L33.9021 30.0244V32.3424L32.348 31.4413V29.1233ZM29.2345 18.7136L30.7912 19.6147V21.9327L29.2345 21.0316V18.7136ZM29.2345 23.0211L30.7912 23.9222V26.2402L29.2345 25.3391V23.0211ZM29.2345 27.3286L30.7912 28.2298V30.5477L29.2345 29.6466V27.3286Z" fill="#00235A"/>
<path d="M41.463 42.0989L49.8009 49.9508V9.62503L33.1251 0V16.8796L41.463 21.6946V42.0989ZM46.9083 11.488L48.465 12.3866V14.7046L46.9083 13.806V11.488ZM46.9083 15.7956L48.465 16.6941V19.0121L46.9083 18.1135V15.7956ZM46.9083 22.4211V20.1031L48.465 21.0017V23.3197L47.6866 22.8704L46.9083 22.4211ZM46.9083 24.4113L48.465 25.3098V27.6278L46.9083 26.7292V24.4113ZM46.9083 28.7188L48.465 29.6174V31.9354L46.9083 31.0368V28.7188ZM46.9083 33.0263L48.465 33.9249V36.2429L46.9083 35.3443V33.0263ZM46.9083 37.3339L48.465 38.2324V40.5504L46.9083 39.6518V37.3339ZM43.7974 9.69084L45.3516 10.592V12.9099L43.7974 12.0088V9.69084ZM43.7974 13.9984L45.3516 14.8995V17.2175L43.7974 16.3164V13.9984ZM43.7974 20.6239V18.3059L45.3516 19.207V21.525L44.5745 21.0744L43.7974 20.6239ZM43.7974 22.6141L45.3516 23.5152V25.8332L43.7974 24.9321V22.6141ZM43.7974 26.9216L45.3516 27.8227V30.1407L43.7974 29.2396V26.9216ZM43.7974 31.2291L45.3516 32.1303V34.4482L43.7974 33.5471V31.2291ZM43.7974 35.5373L45.3516 36.4384V38.7564L43.7974 37.8553V35.5373ZM40.6846 7.8962L42.2413 8.79732V11.1153L40.6846 10.2142V7.8962ZM40.6846 12.2037L42.2413 13.1048V15.4228L40.6846 14.5217V12.2037ZM36.017 13.8244V16.1423L35.2386 15.6918L34.4603 15.2412V12.9232L36.017 13.8244ZM36.017 11.8342L34.4603 10.933V8.61507L36.017 9.51619V11.8342ZM36.017 7.52664L34.4603 6.62551V4.30753L36.017 5.20865V7.52664ZM39.1279 15.6184V17.9363L38.3508 17.4858L37.5737 17.0352V14.7172L39.1279 15.6184ZM39.1279 13.6288L37.5737 12.7277V10.4097L39.1279 11.3108V13.6288ZM39.1279 9.32065L37.5737 8.41953V6.10155L39.1279 7.00267V9.32065ZM40.6846 18.8292V16.5113L42.2413 17.4124V19.7304L41.463 19.2798L40.6846 18.8292Z" fill="#00235A"/>
<path d="M12.672 21.2131L11.1184 22.1117V24.4854L12.672 23.5868V21.2131Z" fill="#0744A3"/>
<path d="M15.7855 22.5132V19.4163L14.2288 20.3142V22.6879L15.159 22.1513L15.7855 22.5132Z" fill="#0744A3"/>
<path d="M18.8963 17.6218L17.3421 18.5179V23.412L18.8963 24.3106V17.6218Z" fill="#0744A3"/>
<path d="M22.0091 15.8247L20.4524 16.7233V25.2093L22.0091 26.1079V15.8247Z" fill="#0744A3"/>
<path d="M36.389 50.8411H33.1471V54.0829H36.389V50.8411Z" fill="#0744A3"/>
<path d="M36.389 54.8171H33.1471V58.059H36.389V54.8171Z" fill="#0744A3"/>
<path d="M40.4333 54.8171H37.1915V58.059H40.4333V54.8171Z" fill="#0744A3"/>
<path d="M40.4333 50.8411H37.1915V54.0829H40.4333V50.8411Z" fill="#0744A3"/>
<path d="M22.4109 42.2788L22.1123 42.3262V47.7519L21.3326 48.2088V42.4503C21.3352 42.4477 21.3377 42.4477 21.3434 42.4477H21.3326V38.3623C20.3625 38.9306 21.1131 38.4889 17.5402 40.5771V43.8038C3.55702 55.1678 7.78545 51.7298 0 58.0591H16.66C26.2084 49.0656 30.7381 44.803 35.6164 40.2069C31.2083 40.8967 25.5212 41.7902 22.4109 42.2788Z" fill="#00235A"/>
<path d="M36.7954 40.6089C36.7954 40.6089 20.6594 55.7957 18.256 58.0592H21.3441L36.7903 43.5135L52.2391 58.0592H55.3272C40.1828 43.7983 44.5669 47.9261 36.7954 40.6089Z" fill="#00235A"/>
<path d="M31.7904 0.771484L30.2336 1.67007V15.2116L31.7904 16.1102V0.771484Z" fill="#0744A3"/>
<path d="M28.677 2.5686L27.1229 3.46466V13.4143L28.677 14.3129V2.5686Z" fill="#0744A3"/>
<path d="M25.5661 12.516V4.36353L24.01 5.26211V12.516L24.7865 12.0667L25.5661 12.516Z" fill="#0744A3"/>
<path d="M22.4533 6.15967L20.8991 7.05573V14.3103L22.4533 13.4142V6.15967Z" fill="#0744A3"/>
<path d="M19.3425 7.95435L17.7858 8.85293V16.1075L19.3425 15.2089V7.95435Z" fill="#0744A3"/>
<path d="M25.12 14.0298L23.5633 14.9284V27.0328L25.12 27.9313V14.0298Z" fill="#0744A3"/>
<path d="M15.1564 39.5568L24.789 33.9147V29.6356L15.1564 24.0776V39.5568Z" fill="#00235A"/>
<path d="M12.6328 45.0667L14.1889 43.8011V24.6118L12.6328 25.5104V45.0667Z" fill="#0744A3"/>
<path d="M11.0761 26.4092L9.52191 27.3052V47.5963L11.0761 46.3332V26.4092Z" fill="#0744A3"/>
<path d="M7.96516 28.2039L6.40845 29.1024V50.1256L7.96516 48.8619V28.2039Z" fill="#0744A3"/>
</svg>
