<svg width="56" height="59" viewBox="0 0 56 59" fill="none" xmlns="http://www.w3.org/2000/svg">
<path d="M27.5671 39.3299L36.9725 37.8554L38.6824 39.4836V22.244L27.5671 15.8223V39.3299ZM35.4582 22.3048L37.0149 23.2034V25.5213L35.4582 24.6227V22.3048ZM35.4582 26.6123L37.0149 27.5109V29.8289L35.4582 28.9303V26.6123ZM35.4582 30.9205L37.0149 31.8191V34.137L35.4582 33.2384V30.9205ZM32.348 20.5076L33.9021 21.4087V23.7267L32.348 22.8256V20.5076ZM32.348 24.8158L33.9021 25.7169V28.0349L32.348 27.1337V24.8158ZM32.348 29.1233L33.9021 30.0244V32.3424L32.348 31.4413V29.1233ZM29.2345 18.7136L30.7912 19.6147V21.9327L29.2345 21.0316V18.7136ZM29.2345 23.0211L30.7912 23.9222V26.2402L29.2345 25.3391V23.0211ZM29.2345 27.3286L30.7912 28.2298V30.5477L29.2345 29.6466V27.3286Z" fill="#00235A"/>
<path d="M41.463 42.0989L49.8009 49.9508V9.62503L33.1251 0V16.8796L41.463 21.6946V42.0989ZM46.9083 11.488L48.465 12.3866V14.7046L46.9083 13.806V11.488ZM46.9083 15.7956L48.465 16.6941V19.0121L46.9083 18.1135V15.7956ZM46.9083 22.4211V20.1031L48.465 21.0017V23.3197L47.6866 22.8704L46.9083 22.4211ZM46.9083 24.4113L48.465 25.3098V27.6278L46.9083 26.7292V24.4113ZM46.9083 28.7188L48.465 29.6174V31.9354L46.9083 31.0368V28.7188ZM46.9083 33.0263L48.465 33.9249V36.2429L46.9083 35.3443V33.0263ZM46.9083 37.3339L48.465 38.2324V40.5504L46.9083 39.6518V37.3339ZM43.7974 9.69084L45.3516 10.592V12.9099L43.7974 12.0088V9.69084ZM43.7974 13.9984L45.3516 14.8995V17.2175L43.7974 16.3164V13.9984ZM43.7974 20.6239V18.3059L45.3516 19.207V21.525L44.5745 21.0744L43.7974 20.6239ZM43.7974 22.6141L45.3516 23.5152V25.8332L43.7974 24.9321V22.6141ZM43.7974 26.9216L45.3516 27.8227V30.1407L43.7974 29.2396V26.9216ZM43.7974 31.2291L45.3516 32.1303V34.4482L43.7974 33.5471V31.2291ZM43.7974 35.5373L45.3516 36.4384V38.7564L43.7974 37.8553V35.5373ZM40.6846 7.8962L42.2413 8.79732V11.1153L40.6846 10.2142V7.8962ZM40.6846 12.2037L42.2413 13.1048V15.4228L40.6846 14.5217V12.2037ZM36.017 13.8244V16.1423L35.2386 15.6918L34.4603 15.2412V12.9232L36.017 13.8244ZM36.017 11.8342L34.4603 10.933V8.61507L36.017 9.51619V11.8342ZM36.017 7.52664L34.4603 6.62551V4.30753L36.017 5.20865V7.52664ZM39.1279 15.6184V17.9363L38.3508 17.4858L37.5737 17.0352V14.7172L39.1279 15.6184ZM39.1279 13.6288L37.5737 12.7277V10.4097L39.1279 11.3108V13.6288ZM39.1279 9.32065L37.5737 8.41953V6.10155L39.1279 7.00267V9.32065ZM40.6846 18.8292V16.5113L42.2413 17.4124V19.7304L41.463 19.2798L40.6846 18.8292Z" fill="#00235A"/>
<path d="M12.672 21.2131L11.1184 22.1117V24.4854L12.672 23.5868V21.2131Z" fill="#0744A3"/>
<path d="M15.7855 22.5132V19.4163L14.2288 20.3142V22.6879L15.159 22.1513L15.7855 22.5132Z" fill="#0744A3"/>
<path d="M18.8963 17.6218L17.3421 18.5179V23.412L18.8963 24.3106V17.6218Z" fill="#0744A3"/>
<path d="M22.0091 15.8247L20.4524 16.7233V25.2093L22.0091 26.1079V15.8247Z" fill="#0744A3"/>
<path d="M36.389 50.8411H33.1471V54.0829H36.389V50.8411Z" fill="#0744A3"/>
<path d="M36.389 54.8171H33.1471V58.059H36.389V54.8171Z" fill="#0744A3"/>
<path d="M40.4333 54.8171H37.1915V58.059H40.4333V54.8171Z" fill="#0744A3"/>
<path d="M40.4333 50.8411H37.1915V54.0829H40.4333V50.8411Z" fill="#0744A3"/>
<path d="M22.4109 42.2788L22.1123 42.3262V47.7519L21.3326 48.2088V42.4503C21.3352 42.4477 21.3377 42.4477 21.3434 42.4477H21.3326V38.3623C20.3625 38.9306 21.1131 38.4889 17.5402 40.5771V43.8038C3.55702 55.1678 7.78545 51.7298 0 58.0591H16.66C26.2084 49.0656 30.7381 44.803 35.6164 40.2069C31.2083 40.8967 25.5212 41.7902 22.4109 42.2788Z" fill="#00235A"/>
<path d="M36.7954 40.6089C36.7954 40.6089 20.6594 55.7957 18.256 58.0592H21.3441L36.7903 43.5135L52.2391 58.0592H55.3272C40.1828 43.7983 44.5669 47.9261 36.7954 40.6089Z" fill="#00235A"/>
<path d="M31.7904 0.771484L30.2336 1.67007V15.2116L31.7904 16.1102V0.771484Z" fill="#0744A3"/>
<path d="M28.677 2.5686L27.1229 3.46466V13.4143L28.677 14.3129V2.5686Z" fill="#0744A3"/>
<path d="M25.5661 12.516V4.36353L24.01 5.26211V12.516L24.7865 12.0667L25.5661 12.516Z" fill="#0744A3"/>
<path d="M22.4533 6.15967L20.8991 7.05573V14.3103L22.4533 13.4142V6.15967Z" fill="#0744A3"/>
<path d="M19.3425 7.95435L17.7858 8.85293V16.1075L19.3425 15.2089V7.95435Z" fill="#0744A3"/>
<path d="M25.12 14.0298L23.5633 14.9284V27.0328L25.12 27.9313V14.0298Z" fill="#0744A3"/>
<path d="M15.1564 39.5568L24.789 33.9147V29.6356L15.1564 24.0776V39.5568Z" fill="#00235A"/>
<path d="M12.6328 45.0667L14.1889 43.8011V24.6118L12.6328 25.5104V45.0667Z" fill="#0744A3"/>
<path d="M11.0761 26.4092L9.52191 27.3052V47.5963L11.0761 46.3332V26.4092Z" fill="#0744A3"/>
<path d="M7.96516 28.2039L6.40845 29.1024V50.1256L7.96516 48.8619V28.2039Z" fill="#0744A3"/>
</svg>
